<?xml version="1.0" standalone="no"?>
<!DOCTYPE svg PUBLIC "-//W3C//DTD SVG 20010904//EN"
 "http://www.w3.org/TR/2001/REC-SVG-20010904/DTD/svg10.dtd">
<svg version="1.0" xmlns="http://www.w3.org/2000/svg"
 width="2048.000000pt" height="2048.000000pt" viewBox="0 0 2048.000000 2048.000000"
 preserveAspectRatio="xMidYMid meet">
<metadata>
Created by potrace 1.11, written by Peter Selinger 2001-2013
</metadata>
<g transform="translate(0.000000,2048.000000) scale(0.100000,-0.100000)"
fill="#000000" stroke="none">
<path d="M9350 19980 c-41 -4 -137 -12 -212 -19 -75 -6 -147 -15 -160 -20 -13
-5 -68 -12 -123 -16 -55 -4 -102 -11 -106 -16 -3 -5 -52 -14 -109 -19 -57 -6
-110 -15 -119 -19 -9 -4 -63 -16 -121 -25 -58 -10 -123 -24 -145 -31 -22 -8
-81 -19 -132 -24 -50 -6 -104 -18 -120 -26 -15 -8 -39 -15 -53 -15 -14 0 -56
-10 -95 -21 -38 -11 -95 -26 -125 -33 -30 -7 -68 -18 -83 -24 -16 -7 -39 -12
-52 -12 -14 0 -42 -6 -62 -14 -21 -8 -74 -24 -118 -36 -44 -12 -85 -26 -90
-31 -6 -4 -35 -12 -65 -18 -30 -5 -68 -14 -85 -19 -83 -30 -230 -73 -268 -79
-23 -3 -48 -12 -55 -20 -7 -7 -29 -13 -47 -13 -19 0 -49 -6 -67 -14 -57 -23
-135 -46 -159 -46 -12 0 -30 -7 -40 -16 -9 -8 -43 -18 -75 -21 -33 -3 -68 -12
-79 -19 -11 -8 -28 -14 -38 -14 -10 0 -57 -13 -105 -29 -48 -16 -104 -32 -124
-35 -21 -4 -38 -10 -38 -15 0 -4 -17 -15 -37 -24 -41 -18 -128 -80 -287 -205
-54 -42 -124 -94 -155 -116 -31 -21 -83 -60 -116 -86 -33 -25 -67 -51 -76 -56
-19 -10 -153 -130 -208 -185 -20 -20 -56 -49 -80 -64 -25 -15 -90 -74 -146
-131 -55 -57 -109 -104 -119 -104 -10 0 -46 -29 -81 -65 -34 -36 -70 -65 -80
-65 -23 0 -125 -99 -125 -121 0 -10 -45 -63 -100 -120 -75 -76 -99 -107 -94
-121 3 -12 -1 -20 -11 -25 -9 -3 -28 -17 -42 -31 -25 -25 -25 -26 -7 -40 13
-10 15 -16 7 -19 -15 -5 -116 -109 -122 -124 -2 -6 -14 -14 -27 -19 -21 -8
-23 -12 -12 -29 10 -16 6 -24 -27 -54 -21 -20 -35 -39 -31 -46 8 -12 -45 -71
-63 -71 -6 0 -8 -12 -5 -27 4 -23 -2 -32 -30 -53 -22 -15 -36 -33 -36 -47 0
-14 -29 -51 -80 -101 -60 -59 -80 -86 -80 -106 0 -16 -5 -26 -15 -26 -11 0
-15 -13 -15 -54 0 -46 -4 -56 -24 -70 -17 -10 -23 -22 -19 -35 3 -14 -5 -30
-26 -51 -17 -18 -31 -40 -31 -51 0 -11 -7 -22 -15 -25 -9 -4 -15 -19 -15 -36
0 -21 -6 -31 -20 -35 -14 -4 -20 -14 -20 -34 0 -19 -10 -38 -30 -56 -17 -14
-30 -36 -30 -49 0 -14 -22 -45 -60 -84 -41 -42 -61 -71 -66 -95 -3 -20 -15
-40 -25 -46 -24 -12 -79 -107 -79 -135 0 -12 -7 -27 -15 -34 -9 -7 -15 -29
-15 -51 0 -29 -7 -46 -29 -68 -16 -16 -32 -43 -35 -59 -4 -15 -20 -43 -36 -61
-31 -33 -38 -51 -20 -51 15 0 12 -36 -5 -50 -9 -7 -15 -29 -15 -52 0 -22 -7
-46 -15 -54 -8 -9 -15 -26 -15 -39 0 -12 -7 -25 -15 -29 -9 -3 -15 -18 -15
-36 0 -18 -5 -30 -13 -30 -7 0 -25 -27 -40 -60 -23 -49 -27 -68 -21 -108 5
-37 3 -51 -10 -61 -9 -7 -16 -23 -16 -35 -1 -11 -14 -32 -30 -46 -20 -16 -30
-33 -30 -51 0 -15 -7 -29 -16 -33 -11 -4 -15 -14 -11 -32 3 -20 0 -28 -14 -31
-20 -6 -26 -28 -9 -38 17 -10 11 -49 -9 -62 -13 -8 -17 -19 -14 -37 4 -19 1
-26 -11 -26 -13 0 -16 -11 -16 -49 0 -39 -4 -50 -17 -53 -14 -3 -17 -12 -14
-51 2 -39 0 -47 -14 -47 -15 0 -16 -7 -10 -46 6 -41 4 -46 -14 -51 -23 -6 -26
-14 -12 -28 5 -6 11 -30 14 -54 5 -37 3 -44 -14 -48 -13 -4 -19 -14 -19 -35 0
-21 -6 -31 -20 -35 -15 -4 -18 -11 -14 -29 4 -17 1 -26 -10 -30 -9 -3 -16 -15
-16 -25 0 -11 -10 -33 -21 -49 -18 -24 -21 -37 -16 -75 6 -42 5 -47 -14 -52
-19 -5 -21 -11 -15 -50 5 -40 3 -46 -15 -50 -16 -4 -19 -11 -14 -27 17 -56 17
-64 -5 -76 -18 -10 -21 -19 -19 -63 2 -51 -19 -118 -41 -132 -5 -3 -10 -26
-10 -51 0 -32 -4 -44 -15 -44 -16 0 -20 -19 -16 -92 2 -36 -3 -55 -19 -78 -14
-19 -20 -39 -17 -52 4 -13 -2 -31 -14 -47 -16 -20 -20 -39 -19 -96 2 -95 2
-95 -15 -95 -12 0 -15 -13 -15 -59 0 -51 -3 -62 -22 -75 -21 -15 -22 -23 -20
-106 3 -85 2 -91 -23 -116 -24 -24 -26 -33 -26 -113 -1 -99 -5 -121 -25 -121
-11 0 -14 -21 -14 -110 0 -88 -3 -111 -15 -118 -12 -6 -17 -28 -19 -78 -1 -38
-8 -115 -16 -171 -10 -83 -16 -102 -31 -106 -17 -5 -19 -22 -22 -233 -5 -253
-11 -308 -36 -327 -13 -10 -17 -35 -19 -142 -2 -103 0 -127 10 -117 12 12 28
115 31 202 1 25 9 59 18 75 9 17 22 73 28 125 17 139 28 197 51 275 12 39 25
84 29 102 5 17 18 44 28 60 11 15 24 39 28 53 4 14 14 36 23 50 26 40 72 140
92 200 43 127 145 342 177 373 43 42 75 67 84 67 5 0 9 7 9 15 0 8 9 23 20 32
11 10 20 22 20 27 0 8 56 82 87 114 7 7 13 18 13 23 0 5 15 35 33 66 29 52 65
145 101 263 7 25 30 90 50 145 20 55 36 107 36 115 0 9 9 33 20 55 11 22 20
43 20 48 0 5 12 32 26 61 14 28 39 87 55 131 16 44 36 94 43 110 40 85 68 148
101 228 20 49 52 121 71 161 19 40 34 77 34 83 0 18 42 107 66 138 12 17 25
47 29 68 4 20 11 37 16 37 5 0 17 17 27 38 10 20 23 46 30 57 6 11 18 36 27
55 15 36 24 50 87 143 21 31 38 60 38 65 0 6 6 17 13 24 22 22 69 98 99 162
27 55 51 91 158 239 43 58 127 185 250 375 56 87 120 148 146 138 8 -3 17 1
20 9 4 8 27 24 53 36 25 11 60 33 76 48 26 25 40 29 101 33 44 3 89 13 116 27
24 11 61 21 81 21 l36 0 -6 -50 c-5 -42 -3 -50 11 -50 8 0 36 -16 61 -35 56
-42 67 -39 174 43 90 70 130 96 137 89 9 -8 -28 -110 -53 -147 -13 -19 -23
-47 -23 -63 0 -41 24 -29 28 14 4 43 15 54 39 40 23 -11 43 2 43 29 0 8 33 43
73 76 40 33 81 78 92 100 28 54 85 125 95 119 5 -3 -8 -40 -30 -81 -44 -84
-63 -174 -38 -174 25 0 217 219 303 345 53 77 174 205 195 205 6 0 26 6 43 14
18 7 65 19 106 26 74 12 75 12 94 -11 11 -13 24 -23 29 -21 15 4 98 -20 98
-29 0 -4 -8 -13 -17 -18 -15 -9 -13 -10 14 -11 29 0 32 -3 38 -42 4 -24 15
-51 24 -62 9 -10 14 -19 12 -20 -2 0 -1 -11 3 -24 6 -18 2 -27 -18 -43 -32
-25 -33 -39 -3 -39 22 0 77 49 77 69 0 13 48 26 58 17 4 -4 -8 -49 -26 -99
-38 -107 -39 -123 -12 -130 22 -6 26 -36 9 -70 -10 -19 -7 -18 17 6 24 23 27
30 16 45 -7 9 -15 23 -18 30 -10 19 5 62 21 62 8 0 15 5 15 10 0 20 48 11 55
-11 9 -26 29 -19 33 12 3 26 43 109 52 109 4 0 16 -13 28 -30 l22 -30 -31 -62
c-17 -34 -38 -84 -46 -110 -8 -27 -20 -51 -28 -54 -7 -3 -19 -29 -26 -57 -6
-29 -18 -61 -25 -72 -8 -11 -14 -27 -14 -35 0 -16 -46 -129 -97 -240 -14 -30
-28 -73 -31 -95 -3 -22 -18 -57 -34 -79 -16 -22 -28 -52 -28 -69 0 -29 -17
-73 -65 -167 -12 -25 -26 -60 -30 -79 -4 -18 -18 -55 -31 -80 -13 -26 -26 -67
-30 -92 -4 -24 -15 -52 -25 -62 -11 -10 -19 -32 -19 -51 0 -20 -6 -36 -14 -39
-19 -7 -43 -57 -51 -106 -3 -21 -17 -54 -31 -72 -13 -18 -24 -42 -24 -54 0
-11 -8 -36 -18 -55 -11 -19 -22 -54 -26 -78 -3 -24 -13 -53 -20 -65 -8 -12
-17 -38 -21 -57 -4 -19 -18 -55 -31 -80 -13 -25 -24 -50 -24 -57 0 -12 -9 -34
-56 -138 -10 -22 -25 -67 -34 -100 -27 -95 -81 -286 -95 -336 -14 -50 -40
-105 -60 -129 -7 -8 -16 -40 -19 -70 -4 -30 -12 -60 -18 -67 -5 -7 -19 -51
-29 -98 -11 -48 -25 -96 -33 -108 -7 -12 -16 -38 -20 -57 -3 -19 -12 -48 -20
-65 -23 -49 -64 -186 -76 -255 -7 -36 -16 -70 -21 -76 -5 -6 -13 -37 -18 -70
-5 -32 -15 -73 -22 -90 -11 -28 -10 -36 4 -58 10 -14 24 -26 31 -26 19 0 66
64 66 89 0 11 5 23 10 26 13 8 13 -36 0 -70 -20 -53 -54 -413 -50 -538 1 -53
-7 -87 -20 -87 -5 0 -11 8 -14 18 -3 9 -3 -12 -1 -48 2 -36 1 -138 -2 -228 -5
-142 -8 -161 -21 -149 -10 11 -11 20 -4 33 6 12 7 67 1 149 -4 72 -8 138 -9
148 0 10 -4 15 -10 12 -13 -8 -13 -249 0 -410 6 -80 6 -151 -1 -210 -6 -50
-13 -276 -15 -504 -2 -267 -8 -417 -14 -421 -16 -10 -18 -129 -2 -139 10 -6
13 -99 13 -427 1 -509 16 -770 59 -1019 5 -33 10 -77 10 -98 0 -21 7 -45 15
-53 10 -10 15 -35 15 -70 0 -30 6 -87 14 -127 8 -40 22 -115 31 -167 9 -52 26
-126 36 -165 11 -38 19 -84 19 -102 0 -17 7 -38 15 -47 8 -8 18 -30 21 -48 3
-18 19 -72 35 -120 16 -48 29 -101 29 -118 0 -18 6 -33 15 -36 9 -4 15 -19 15
-36 0 -16 13 -59 30 -95 16 -35 30 -73 30 -84 0 -11 7 -22 15 -25 8 -3 17 -22
21 -42 3 -21 12 -46 19 -57 6 -11 15 -34 18 -52 3 -17 18 -55 32 -84 14 -29
25 -59 25 -66 0 -8 7 -16 15 -19 8 -3 17 -22 21 -42 4 -21 12 -43 17 -51 14
-16 35 -72 48 -126 6 -22 17 -44 25 -48 8 -5 14 -23 14 -45 0 -25 7 -43 20
-54 11 -10 23 -30 26 -45 4 -15 15 -38 25 -51 10 -13 21 -36 24 -52 4 -17 10
-30 15 -30 5 0 12 -10 15 -22 12 -40 77 -168 86 -168 4 0 11 -17 15 -37 3 -21
11 -42 18 -48 18 -16 59 -124 53 -139 -3 -8 1 -20 9 -26 8 -7 14 -24 14 -39 1
-14 9 -44 20 -66 11 -22 19 -44 20 -48 0 -5 16 -42 35 -83 19 -40 35 -78 35
-84 0 -5 4 -10 9 -10 4 0 14 -20 21 -45 7 -24 19 -50 26 -56 8 -6 14 -19 14
-29 0 -9 16 -46 35 -81 20 -35 46 -86 60 -114 32 -65 46 -87 68 -103 9 -7 17
-19 17 -27 0 -8 9 -19 20 -25 11 -6 20 -18 20 -28 0 -9 14 -37 30 -61 17 -25
30 -58 30 -75 1 -17 8 -49 16 -71 8 -22 23 -68 33 -102 18 -62 18 -63 -1 -63
-11 0 -52 19 -91 41 -75 44 -216 179 -377 361 -45 51 -99 112 -120 135 -47 51
-83 106 -192 293 -46 80 -94 161 -106 180 -30 50 -172 334 -172 343 0 5 -21
52 -47 106 -27 54 -57 120 -68 147 -11 27 -32 73 -47 102 -15 29 -30 68 -34
87 -3 18 -12 36 -19 38 -6 3 -15 23 -18 44 -4 21 -18 60 -32 87 -14 27 -25 57
-25 66 0 10 -6 23 -14 29 -8 7 -20 35 -26 63 -6 29 -14 56 -19 62 -5 6 -18 40
-30 76 -26 77 -74 202 -107 281 -13 31 -24 65 -24 76 0 10 -9 36 -20 58 -11
21 -23 62 -26 89 -3 28 -12 60 -19 71 -6 11 -15 33 -19 49 -4 16 -16 41 -27
55 -41 53 -67 100 -74 132 -9 42 -72 139 -90 139 -15 0 -14 -16 10 -150 8 -41
18 -88 24 -103 6 -16 11 -46 11 -68 0 -33 -4 -41 -25 -49 -19 -7 -25 -17 -25
-41 0 -40 -20 -34 -34 12 -6 19 -17 34 -24 34 -7 0 -18 11 -25 25 -8 16 -23
26 -40 28 -18 2 -35 15 -51 39 -24 34 -24 35 -36 14 -8 -16 -17 -20 -31 -16
-15 5 -19 2 -19 -18 0 -22 -5 -26 -49 -32 -38 -5 -48 -10 -46 -23 2 -9 4 -20
4 -24 1 -4 9 -4 18 -1 15 6 14 2 -4 -20 -12 -15 -24 -44 -28 -65 l-6 -37 -102
6 c-56 3 -114 11 -130 19 -16 8 -41 39 -64 79 -20 36 -51 86 -70 110 -18 24
-33 49 -33 55 0 7 -5 17 -12 24 -14 14 -18 102 -5 102 5 0 7 6 5 13 -3 6 -11
12 -18 12 -8 0 -18 15 -24 33 -6 21 -14 31 -25 30 -14 -3 -16 8 -14 72 1 41
-2 65 -5 52 -4 -13 -10 -23 -14 -23 -5 1 -12 1 -18 1 -5 0 -10 24 -10 53 0 48
-3 55 -39 89 -22 20 -41 45 -43 55 -2 13 -11 17 -31 15 -15 -2 -27 1 -27 7 0
6 -7 11 -15 11 -7 0 -18 6 -22 13 -13 22 -75 49 -87 37 -18 -18 -57 -12 -63
10 -4 15 -14 20 -38 20 -33 0 -65 21 -65 43 0 6 -19 33 -42 61 l-42 50 -4 305
c-3 312 11 771 29 903 5 40 14 163 20 273 5 110 14 223 19 250 5 28 17 109 25
180 8 72 24 177 34 235 11 58 22 143 25 190 3 47 12 103 20 125 8 22 15 57 16
77 0 20 13 102 30 181 16 80 30 161 30 182 0 20 6 51 14 68 20 46 37 241 25
301 -10 54 -5 87 21 131 10 17 26 59 36 95 9 36 30 94 46 129 15 35 28 68 28
73 0 17 40 98 49 98 5 0 18 24 30 53 12 28 30 68 40 87 10 20 36 80 56 135 21
55 45 111 55 125 39 56 82 156 91 213 6 38 19 71 34 88 29 35 43 108 24 120
-8 5 -24 9 -37 9 -19 0 -21 3 -12 19 5 11 10 30 10 42 0 12 3 19 7 16 3 -4 12
-2 20 4 17 15 19 -11 1 -29 -8 -8 -8 -15 2 -27 20 -24 35 -18 53 20 24 50 22
82 -7 101 l-25 16 28 56 c16 31 32 73 35 93 4 20 15 44 25 53 25 23 45 71 37
91 -21 57 -107 -42 -130 -151 -14 -66 -79 -205 -131 -282 -14 -20 -25 -42 -25
-48 0 -7 -6 -14 -14 -17 -7 -3 -19 -29 -26 -57 -9 -37 -22 -61 -47 -83 -19
-18 -51 -63 -70 -102 -20 -38 -48 -88 -63 -110 -15 -22 -42 -67 -60 -100 -18
-33 -47 -76 -64 -95 -36 -41 -101 -153 -111 -193 -4 -15 -14 -31 -22 -35 -8
-5 -15 -27 -17 -53 -2 -31 -9 -52 -25 -68 -47 -47 -63 34 -18 89 27 32 28 50
1 50 -19 0 -18 26 2 34 8 3 13 10 10 15 -3 5 1 11 9 15 20 7 18 26 -5 54 -14
17 -25 22 -40 17 -47 -15 -81 25 -45 55 17 14 21 70 5 70 -6 0 -15 -10 -21
-22 -16 -36 -36 -70 -46 -77 -18 -13 -56 -81 -116 -206 -8 -16 -48 -97 -90
-179 -42 -81 -79 -161 -82 -177 -4 -16 -11 -31 -15 -34 -10 -6 -80 -151 -80
-165 0 -4 -7 -13 -15 -20 -8 -7 -18 -28 -21 -48 -4 -20 -15 -50 -25 -66 -9
-17 -29 -62 -44 -101 -15 -38 -48 -113 -72 -165 -25 -52 -47 -111 -50 -130 -3
-19 -11 -39 -17 -45 -7 -5 -17 -29 -24 -52 -7 -24 -17 -43 -22 -43 -5 0 -18
-29 -29 -64 -11 -36 -24 -73 -29 -83 -6 -10 -15 -31 -22 -48 -11 -27 -13 -28
-25 -12 -11 16 -13 16 -19 1 -3 -8 -6 -27 -6 -40 0 -14 -7 -27 -15 -30 -8 -4
-15 -12 -15 -19 0 -6 -9 -20 -20 -30 -11 -10 -20 -25 -20 -34 0 -8 -22 -83
-49 -166 -27 -82 -52 -169 -55 -193 -4 -24 -13 -53 -20 -65 -15 -23 -49 -147
-71 -255 -7 -34 -17 -68 -23 -75 -6 -6 -15 -37 -21 -67 -6 -30 -24 -100 -41
-155 -17 -55 -39 -127 -50 -160 -10 -33 -27 -85 -37 -115 -47 -133 -63 -186
-63 -207 0 -13 -12 -31 -29 -44 -16 -12 -32 -31 -35 -42 -4 -17 -7 -18 -20 -7
-21 17 -20 26 5 51 14 14 18 27 13 42 -9 31 -10 31 -33 8 -12 -12 -25 -21 -31
-21 -5 0 -18 -9 -29 -21 -13 -14 -26 -19 -40 -14 -28 9 -26 33 4 47 27 12 58
52 48 62 -12 11 -36 6 -56 -12 -19 -17 -19 -16 -15 23 3 22 10 54 16 70 13 40
52 198 62 257 5 26 13 56 19 66 6 11 26 80 45 154 19 73 42 158 51 188 9 30
21 80 27 110 6 30 15 61 21 68 5 7 14 35 18 61 4 27 16 68 27 92 11 24 23 67
27 94 4 28 14 61 21 75 7 14 20 50 27 80 8 30 26 96 40 145 14 50 31 110 38
135 6 25 19 65 29 90 32 85 72 205 79 240 4 19 13 44 19 55 14 24 112 309 112
324 0 6 9 28 20 48 11 21 20 46 20 56 0 10 14 52 30 94 17 41 30 83 30 93 0 9
6 23 14 29 7 6 16 29 20 52 3 22 29 99 57 172 64 168 139 385 139 403 0 8 6
25 14 37 8 12 18 56 22 98 6 75 6 77 -20 94 -15 10 -28 16 -29 14 -41 -73
-136 -266 -158 -323 -11 -27 -32 -75 -46 -105 -14 -31 -36 -79 -49 -108 -13
-28 -24 -56 -24 -62 0 -6 -13 -25 -29 -43 -15 -18 -32 -44 -36 -58 -11 -37
-25 -50 -51 -50 -16 0 -24 -6 -24 -17 0 -10 -13 -45 -28 -78 -16 -33 -37 -85
-48 -115 -10 -30 -27 -63 -36 -72 -10 -10 -18 -30 -18 -45 -1 -16 -7 -44 -14
-63 -23 -59 -61 -144 -71 -160 -5 -8 -19 -42 -30 -75 -12 -33 -32 -78 -46
-100 -13 -22 -35 -62 -48 -90 -13 -27 -37 -64 -51 -82 -15 -17 -40 -53 -55
-80 -24 -46 -29 -50 -62 -49 -21 1 -38 8 -44 19 -19 34 -29 16 -29 -51 0 -54
-4 -73 -18 -85 -15 -14 -18 -34 -20 -116 -1 -58 -8 -117 -17 -143 -9 -25 -15
-80 -15 -133 0 -63 -5 -96 -15 -109 -9 -12 -15 -42 -15 -71 0 -77 -12 -175
-20 -170 -9 5 -20 -44 -20 -84 0 -15 -7 -36 -15 -47 -10 -13 -14 -45 -15 -102
0 -46 -5 -93 -12 -105 -7 -12 -15 -51 -19 -87 -4 -35 -12 -66 -18 -68 -6 -2
-13 -19 -17 -39 -4 -23 -9 -31 -14 -22 -5 7 -11 -28 -15 -79 -5 -63 -12 -92
-21 -96 -10 -4 -14 -25 -14 -77 0 -56 -4 -75 -17 -84 -14 -10 -16 -29 -15
-100 1 -78 -1 -88 -19 -92 -16 -5 -19 -14 -19 -68 0 -52 -3 -64 -17 -67 -12
-2 -18 -15 -19 -43 -9 -159 -13 -179 -33 -187 -18 -6 -21 -16 -21 -67 0 -50
-3 -59 -20 -64 -18 -5 -20 -12 -17 -81 4 -67 2 -76 -14 -81 -15 -5 -19 -16
-19 -50 0 -29 -5 -45 -15 -49 -12 -4 -15 -23 -15 -82 0 -67 -2 -76 -20 -81
-18 -5 -20 -14 -20 -83 0 -60 -3 -79 -15 -84 -11 -4 -15 -21 -15 -65 0 -43 -4
-60 -15 -65 -10 -4 -15 -20 -15 -51 0 -33 -4 -45 -15 -45 -12 0 -15 -13 -15
-60 0 -49 -3 -61 -20 -70 -15 -8 -20 -21 -20 -55 0 -33 -4 -45 -15 -45 -12 0
-15 -14 -15 -65 0 -51 -3 -65 -15 -65 -12 0 -15 -13 -15 -60 0 -45 -4 -61 -17
-69 -12 -6 -16 -20 -15 -49 2 -32 -2 -43 -18 -52 -15 -8 -20 -21 -20 -55 0
-33 -4 -45 -15 -45 -12 0 -15 -14 -15 -65 0 -51 -3 -65 -15 -65 -11 0 -15 -12
-15 -45 0 -35 -4 -47 -21 -56 -14 -7 -19 -17 -16 -30 3 -12 -2 -23 -14 -29
-16 -9 -19 -22 -19 -90 0 -64 -3 -80 -15 -80 -11 0 -15 -12 -15 -45 0 -31 -5
-47 -15 -51 -8 -4 -15 -18 -15 -34 0 -20 -6 -29 -21 -33 -19 -5 -21 -11 -15
-41 6 -29 3 -39 -14 -53 -17 -15 -20 -29 -20 -110 0 -76 -3 -93 -15 -93 -11 0
-15 -12 -15 -45 0 -31 -5 -47 -15 -51 -11 -5 -15 -21 -15 -60 0 -42 -4 -56
-21 -68 -15 -10 -19 -20 -14 -35 4 -14 0 -23 -15 -31 -17 -9 -20 -20 -20 -86
0 -57 -4 -76 -15 -80 -10 -4 -15 -20 -15 -49 0 -34 -4 -45 -18 -50 -16 -4 -18
-15 -16 -64 2 -51 -1 -60 -17 -64 -16 -4 -19 -15 -19 -65 0 -44 -4 -61 -15
-66 -10 -4 -15 -20 -15 -50 0 -35 -4 -45 -20 -49 -17 -4 -20 -14 -20 -65 0
-44 -4 -61 -15 -66 -10 -4 -15 -20 -15 -50 0 -30 -5 -46 -15 -50 -11 -4 -15
-21 -15 -66 0 -47 -3 -60 -15 -60 -12 0 -15 -14 -15 -64 0 -57 -3 -65 -21 -71
-16 -5 -19 -12 -14 -32 4 -19 1 -26 -15 -30 -17 -5 -20 -13 -20 -69 0 -50 -3
-64 -15 -64 -12 0 -15 -14 -15 -64 0 -57 -2 -64 -21 -69 -20 -5 -21 -11 -16
-57 5 -43 3 -54 -13 -68 -14 -11 -20 -29 -20 -59 0 -32 -4 -43 -15 -43 -12 0
-15 -14 -15 -65 0 -51 -3 -65 -15 -65 -12 0 -15 -17 -15 -96 0 -84 -2 -96 -18
-101 -15 -3 -18 -15 -17 -64 0 -48 -4 -62 -18 -71 -15 -8 -18 -21 -16 -81 2
-60 0 -73 -14 -75 -13 -3 -17 -15 -17 -52 0 -38 -4 -49 -17 -52 -15 -3 -17
-14 -14 -81 3 -73 1 -79 -18 -84 -21 -5 -21 -10 -16 -98 5 -86 4 -93 -15 -98
-18 -5 -20 -14 -20 -80 0 -57 -4 -76 -15 -81 -12 -4 -15 -31 -15 -150 0 -124
-2 -145 -16 -148 -14 -3 -16 -23 -15 -161 2 -149 1 -159 -17 -164 -17 -4 -20
-14 -21 -79 -1 -64 2 -75 19 -84 17 -9 20 -21 20 -79 0 -55 -4 -71 -20 -86
-19 -17 -20 -31 -20 -382 0 -356 0 -365 20 -370 16 -4 20 -14 20 -48 0 -29 5
-45 15 -49 10 -4 15 -20 15 -51 0 -33 4 -45 15 -45 12 0 15 -14 15 -64 0 -57
3 -65 21 -71 16 -5 19 -12 15 -31 -5 -17 -1 -26 14 -34 15 -8 20 -21 20 -49 0
-22 6 -44 15 -51 8 -7 15 -18 15 -25 0 -7 12 -25 26 -40 23 -25 25 -33 19 -76
-6 -44 -4 -53 22 -86 17 -21 33 -46 36 -56 4 -9 11 -17 17 -17 5 0 10 -6 10
-14 0 -35 60 -140 83 -144 13 -3 17 3 17 25 0 37 14 57 34 50 10 -4 16 -1 16
8 0 8 -4 15 -10 15 -5 0 -10 5 -10 11 0 6 -7 17 -15 25 -24 24 -18 42 18 53
60 20 134 121 88 121 -10 0 -24 15 -34 35 -17 36 -8 56 13 30 7 -8 19 -15 26
-15 8 0 14 -8 14 -17 1 -17 2 -17 14 0 22 29 28 104 16 202 -21 176 -26 201
-42 223 -15 23 -14 62 3 62 4 0 9 17 11 38 2 28 7 37 20 36 20 -2 23 7 7 23
-16 16 8 28 26 13 11 -9 15 -9 15 -1 0 6 -5 11 -11 11 -8 0 -10 15 -7 45 4 34
2 47 -9 54 -10 5 -12 11 -5 15 7 4 6 17 -4 41 -8 19 -14 41 -14 50 0 24 -32
55 -57 55 -13 0 -23 4 -23 9 0 15 -55 30 -73 19 -10 -5 -17 -6 -16 -1 4 20 -2
32 -13 28 -10 -4 -13 49 -12 247 0 215 3 260 17 298 10 24 22 74 27 111 5 37
14 79 20 94 10 26 11 27 29 11 18 -17 19 -16 25 11 3 15 1 84 -5 153 -6 69
-12 157 -14 195 -1 39 -8 124 -14 190 -15 146 -15 604 0 658 6 21 8 45 5 53
-3 8 3 56 14 106 10 51 22 147 26 213 3 66 13 135 20 154 8 18 18 71 23 116
10 80 43 222 62 257 5 11 5 28 -2 45 -11 31 -4 92 17 131 8 15 14 39 14 54 0
39 10 58 30 58 20 0 43 23 33 33 -3 4 -19 7 -35 7 -38 0 -32 24 6 28 24 3 27
7 21 32 -3 16 -2 37 4 47 5 10 17 43 26 73 9 30 23 69 30 85 7 17 16 50 20 75
4 25 16 60 26 78 11 19 17 37 14 42 -11 18 16 156 35 182 11 15 20 35 20 44 0
16 26 43 42 44 4 0 11 -18 14 -40 7 -42 28 -54 39 -21 11 36 114 68 130 40 8
-12 -22 -49 -40 -49 -7 0 -18 -7 -25 -15 -10 -12 -7 -15 14 -21 37 -9 52 -30
34 -48 -10 -10 -17 -49 -21 -124 -4 -61 -18 -157 -31 -214 -74 -306 -144 -646
-161 -773 -8 -55 -19 -138 -25 -185 -6 -47 -20 -143 -30 -215 -11 -71 -27
-220 -37 -329 -14 -171 -15 -223 -5 -370 7 -94 12 -202 12 -241 0 -38 9 -112
19 -162 11 -51 22 -123 26 -160 4 -38 16 -87 26 -111 10 -24 26 -87 35 -140
23 -141 48 -253 83 -372 49 -167 93 -405 82 -445 -5 -19 -6 -37 -3 -41 4 -4 1
-4 -6 0 -19 11 -42 -12 -42 -43 0 -15 -7 -37 -16 -50 -12 -17 -18 -56 -21
-149 -6 -131 -12 -152 -44 -152 -16 0 -18 -5 -13 -26 5 -20 0 -32 -23 -57 -40
-43 -46 -59 -49 -146 -2 -40 -8 -79 -13 -85 -6 -7 -10 -26 -10 -42 1 -16 -4
-56 -11 -89 -14 -70 -14 -107 1 -153 6 -18 8 -50 5 -70 -4 -24 -3 -32 2 -23 8
11 11 11 18 0 4 -7 3 -14 -4 -17 -8 -2 -7 -11 4 -28 9 -13 14 -30 11 -38 -3
-8 1 -17 10 -20 11 -5 12 -10 5 -19 -7 -8 -7 -28 -2 -57 12 -61 12 -70 -2 -70
-6 0 -26 -18 -45 -40 -19 -22 -43 -40 -54 -40 -11 0 -33 -9 -48 -21 -16 -12
-51 -24 -77 -27 -31 -3 -63 -15 -88 -34 l-39 -28 346 0 c191 0 347 3 347 8 0
4 -9 25 -19 47 -111 230 -171 379 -171 422 0 8 -8 28 -17 44 -13 22 -14 33 -6
51 6 13 16 50 23 83 12 55 18 65 89 135 43 41 90 81 107 89 16 8 54 33 84 56
30 23 63 45 73 48 18 7 82 -24 136 -65 36 -27 69 -22 107 16 19 19 34 38 34
44 0 5 -16 13 -35 16 -28 6 -35 11 -35 31 0 25 42 65 68 65 8 0 33 9 56 20 93
44 186 80 205 80 12 0 38 7 59 15 20 9 52 17 72 19 53 5 266 117 333 174 39
33 71 52 95 56 37 5 78 40 146 125 15 19 55 52 89 75 73 49 94 70 170 173 59
80 196 227 278 298 63 54 173 109 204 101 37 -9 55 -34 55 -74 0 -46 -15 -68
-110 -169 -43 -46 -81 -97 -89 -119 -8 -21 -26 -65 -42 -97 -15 -31 -31 -71
-34 -88 -4 -17 -15 -50 -25 -73 -28 -63 -27 -258 2 -346 34 -106 37 -110 63
-120 25 -9 35 -43 16 -55 -14 -8 -8 -121 9 -178 13 -42 12 -55 -2 -110 -15
-59 -15 -65 4 -127 11 -36 30 -90 43 -120 13 -30 24 -73 23 -95 -1 -41 39
-149 72 -196 10 -14 22 -36 25 -50 4 -13 24 -51 46 -84 21 -33 46 -75 55 -92
l18 -33 143 0 c120 0 143 2 143 15 0 8 -5 15 -10 15 -6 0 -13 8 -17 17 -3 10
-25 43 -48 73 -23 30 -47 71 -55 90 -8 19 -24 46 -37 59 -14 15 -21 31 -18 42
4 10 -2 23 -13 31 -10 7 -27 26 -38 42 -20 31 -52 144 -53 186 -1 24 1 25 56
24 32 -1 66 -5 76 -9 12 -5 30 1 55 18 31 21 51 26 117 29 l80 3 3 -28 c3 -21
-2 -29 -22 -37 -30 -11 -31 -12 -11 -51 16 -29 35 -31 35 -4 0 8 9 20 21 28
18 13 27 13 72 1 29 -8 80 -14 114 -14 58 0 63 -2 77 -28 16 -32 108 -116 146
-135 14 -7 26 -23 28 -35 3 -19 9 -23 30 -20 26 3 27 5 26 63 0 33 -4 125 -8
205 -9 142 -8 148 18 227 14 45 26 91 26 101 0 11 -13 36 -30 57 -35 44 -39
94 -14 160 38 97 39 118 10 167 -48 83 -36 135 87 379 41 79 77 158 81 174 4
17 13 36 19 44 17 20 37 82 37 116 0 17 7 43 15 59 9 17 20 82 26 155 6 69 15
129 21 132 5 3 13 36 18 73 4 37 14 73 21 82 7 9 15 64 19 132 11 160 22 208
98 417 63 174 70 182 331 450 153 157 301 318 316 344 11 19 22 32 73 89 65
72 139 168 165 214 15 26 40 59 55 74 32 31 185 82 249 83 23 1 45 6 48 11 3
6 17 10 30 10 13 0 74 16 137 36 l113 35 175 -5 c96 -3 203 -5 236 -6 45 0 68
-5 85 -19 23 -18 23 -20 6 -39 -11 -11 -43 -25 -79 -32 -58 -11 -60 -12 -39
-27 l22 -15 -32 -29 c-18 -16 -39 -29 -46 -29 -7 0 -39 -27 -71 -60 -83 -85
-104 -81 -81 19 13 58 5 78 -37 90 -37 10 -81 2 -120 -23 -12 -9 -41 -19 -64
-22 -48 -8 -88 -38 -115 -87 -18 -33 -18 -35 1 -59 16 -22 30 -27 89 -32 80
-8 96 -17 72 -44 -9 -10 -17 -25 -17 -33 0 -8 -9 -29 -20 -47 -24 -38 -26 -95
-5 -116 8 -8 15 -19 15 -24 0 -5 6 -15 13 -21 17 -13 10 -74 -7 -64 -8 5 -8 3
1 -8 6 -8 13 -25 15 -39 2 -17 10 -26 25 -28 13 -2 32 -15 43 -30 40 -52 70
-103 65 -112 -3 -4 -22 -11 -42 -15 -32 -6 -35 -9 -18 -15 11 -5 32 -9 46 -9
23 -1 27 -8 47 -73 11 -40 24 -91 28 -113 3 -22 14 -46 23 -53 15 -12 15 -14
-1 -23 -23 -13 -23 -47 -1 -71 23 -26 4 -42 -39 -34 -27 5 -38 14 -52 44 -34
72 -91 162 -103 162 -19 0 -16 -30 8 -74 29 -55 141 -178 150 -165 7 12 37
-27 57 -75 13 -29 35 -56 105 -126 20 -21 37 -47 37 -58 0 -12 17 -30 43 -48
58 -39 87 -70 87 -94 0 -14 6 -20 23 -20 14 0 40 -15 60 -35 20 -19 44 -35 54
-35 10 0 23 -10 28 -23 6 -12 29 -31 52 -42 24 -11 43 -24 43 -28 0 -14 72
-97 83 -97 6 0 18 -7 27 -15 9 -8 38 -17 65 -20 61 -6 61 -6 64 -59 1 -16 9
-27 24 -32 12 -3 41 -16 65 -26 32 -16 42 -26 42 -44 0 -17 8 -28 28 -36 30
-13 131 -116 132 -134 0 -6 7 -17 15 -24 8 -7 15 -23 15 -35 0 -32 80 -126
126 -149 22 -11 53 -34 70 -50 18 -17 65 -49 107 -71 74 -40 225 -129 322
-190 28 -17 64 -37 82 -44 17 -7 39 -21 48 -31 10 -11 30 -22 45 -25 16 -3 34
-13 41 -21 6 -8 16 -14 20 -14 5 0 31 -15 58 -32 123 -82 170 -107 224 -118
32 -6 61 -18 64 -26 3 -8 11 -14 18 -14 8 0 47 -18 87 -40 40 -22 85 -40 99
-40 14 0 44 -13 66 -29 57 -41 90 -56 158 -70 33 -7 92 -28 130 -45 74 -35
148 -56 193 -56 15 0 44 -9 64 -20 21 -11 57 -23 80 -26 24 -4 52 -12 63 -19
11 -7 52 -15 90 -19 39 -4 88 -14 110 -21 22 -8 91 -16 155 -19 63 -2 192 -9
285 -15 130 -9 239 -9 460 0 160 6 315 11 345 10 55 -1 147 14 185 30 11 4 51
7 88 6 73 -2 72 -1 107 -77 4 -8 19 -16 34 -18 14 -2 26 -8 26 -13 0 -15 52
-10 70 6 10 9 35 18 56 21 34 5 86 25 149 57 144 75 260 139 265 147 3 4 21
15 40 24 51 24 92 51 215 141 125 92 104 78 301 209 82 54 166 111 187 125 21
14 46 30 55 36 9 5 43 27 74 47 32 21 60 38 62 38 2 0 36 18 76 40 39 23 127
63 195 89 151 60 139 53 220 126 126 113 241 241 237 262 -2 8 9 19 27 26 17
6 31 18 31 26 0 7 13 28 29 45 48 50 159 193 176 226 8 16 20 30 25 30 12 0
97 113 113 152 8 18 28 48 45 66 17 18 36 48 42 67 6 20 31 75 56 123 24 48
44 100 44 115 0 15 7 30 15 33 8 3 17 21 21 40 3 19 10 37 15 40 5 2 16 22 26
42 9 20 25 45 35 55 14 13 18 33 18 82 0 54 -4 68 -26 95 -18 20 -32 29 -44
25 -25 -8 -32 18 -24 82 11 91 28 128 60 131 15 2 33 11 39 19 16 22 118 26
345 15 193 -9 194 -9 274 -65 21 -15 45 -27 53 -27 7 0 24 -25 38 -55 23 -54
24 -59 20 -277 -4 -217 -11 -287 -36 -395 -10 -42 -10 -65 0 -115 9 -45 10
-85 3 -138 -5 -41 -7 -140 -4 -219 l5 -144 45 -66 c24 -36 57 -78 72 -92 16
-15 36 -53 50 -95 12 -38 29 -79 37 -92 8 -13 26 -54 40 -90 13 -37 34 -77 45
-89 16 -17 22 -39 25 -90 2 -46 8 -72 19 -79 8 -7 19 -27 24 -45 15 -50 -10
-116 -112 -300 -182 -327 -247 -421 -555 -796 -66 -81 -144 -177 -173 -213
l-51 -65 210 -3 211 -2 30 34 c17 19 74 90 126 158 174 224 296 422 459 748
128 255 145 308 145 446 0 55 3 104 6 107 4 3 15 2 24 -3 14 -8 22 -4 35 16
10 15 22 23 31 20 21 -8 29 21 13 50 -18 34 -4 53 55 77 46 19 47 19 60 1 14
-18 15 -18 33 -1 11 9 22 14 25 11 4 -3 15 -1 25 4 10 6 57 13 105 15 47 3 98
12 113 20 25 12 33 12 84 -9 71 -30 129 -38 163 -25 20 8 29 7 35 -2 4 -7 25
-21 46 -31 20 -11 46 -34 57 -52 11 -18 38 -48 60 -68 22 -20 40 -44 40 -54 0
-27 20 -42 57 -42 23 0 33 -5 33 -15 0 -8 -4 -15 -10 -15 -5 0 -10 -7 -10 -16
0 -12 6 -15 22 -11 14 4 32 -3 55 -21 84 -68 113 -95 118 -113 4 -11 24 -28
45 -39 30 -15 40 -27 47 -57 7 -30 19 -45 56 -69 25 -17 58 -43 71 -57 33 -35
78 -36 122 -2 61 46 186 53 289 16 40 -15 92 -23 158 -26 85 -4 104 -9 150
-35 30 -17 86 -61 125 -98 65 -64 71 -72 80 -128 6 -32 16 -78 23 -100 11 -37
10 -46 -11 -90 -14 -30 -23 -64 -22 -89 6 -120 3 -146 -21 -178 -25 -33 -67
-143 -67 -175 0 -10 -4 -22 -9 -27 -4 -6 -13 -25 -19 -43 l-11 -32 1100 0
1099 0 0 145 c0 96 -4 145 -11 145 -6 0 -8 9 -4 20 6 20 -9 28 -20 10 -8 -12
-67 30 -62 44 4 13 -17 36 -32 36 -5 0 -14 6 -18 13 -4 7 -25 23 -45 35 -20
13 -38 26 -40 30 -5 11 -84 52 -102 52 -8 0 -20 9 -26 20 -6 11 -17 20 -25 20
-8 0 -25 10 -37 22 -12 12 -30 22 -40 23 -9 0 -32 21 -50 46 -54 76 -118 140
-154 155 -22 9 -34 21 -34 33 0 29 -11 52 -22 45 -15 -9 -78 28 -78 47 0 28
-101 112 -162 135 -10 3 -18 13 -18 20 0 8 -12 20 -27 26 -35 15 -74 44 -75
55 -1 23 -19 41 -37 36 -13 -3 -23 2 -31 17 -7 12 -18 19 -26 16 -8 -3 -14 -1
-14 5 0 5 -11 14 -25 19 -25 10 -31 29 -27 93 2 25 -1 27 -37 27 -42 0 -91 17
-91 32 0 4 4 8 9 8 5 0 13 9 16 21 9 28 46 41 65 23 49 -46 73 -64 86 -64 7 0
14 -4 14 -9 0 -5 24 -21 53 -35 62 -32 146 -90 184 -129 24 -23 26 -30 15 -47
-11 -18 -10 -20 13 -20 14 0 25 5 25 10 0 6 6 10 12 10 13 0 30 -15 117 -102
26 -26 69 -58 97 -72 27 -14 55 -34 62 -45 7 -12 18 -21 25 -21 7 0 23 -11 35
-25 12 -14 28 -25 36 -25 8 0 43 -29 79 -64 35 -35 73 -67 85 -70 21 -7 101
-81 152 -141 14 -17 39 -37 55 -45 16 -8 53 -40 82 -70 l53 -55 0 595 0 595
-45 47 c-25 26 -45 54 -45 63 0 9 -30 47 -67 86 -38 38 -72 79 -77 89 -5 11
-13 20 -17 20 -5 0 -17 20 -28 43 -11 24 -34 58 -50 76 -17 18 -33 41 -36 52
-4 10 -15 19 -25 19 -13 0 -26 15 -39 43 -24 50 -87 139 -107 150 -8 4 -14 14
-14 21 0 8 -7 20 -16 27 -21 17 -202 292 -214 325 -5 13 -18 37 -28 52 -11 15
-44 65 -74 112 -31 47 -72 100 -92 118 -20 18 -36 39 -36 46 0 7 -7 19 -14 26
-8 6 -20 36 -26 66 -7 31 -18 58 -25 61 -8 2 -25 24 -39 46 -13 23 -80 97
-148 165 -114 115 -167 179 -253 308 -32 49 -109 124 -126 124 -8 0 -77 90
-179 237 -30 43 -60 82 -67 86 -17 11 -26 22 -70 87 -20 30 -40 57 -45 58 -5
2 -16 18 -24 35 -9 18 -46 76 -83 131 -36 54 -80 125 -98 158 -17 33 -43 72
-57 87 -14 15 -26 30 -26 33 0 4 -13 28 -30 55 -16 26 -33 70 -36 96 -7 47 8
87 77 217 50 96 104 216 116 259 8 30 21 64 30 77 25 38 34 157 21 263 l-12
94 32 27 c22 18 35 39 39 64 4 27 11 38 29 42 21 5 24 12 24 55 0 27 4 49 10
49 15 0 141 -151 156 -187 13 -31 34 -45 34 -23 0 6 5 10 10 10 6 0 10 -12 10
-26 0 -14 8 -38 19 -52 10 -15 30 -63 45 -107 31 -93 29 -87 120 -287 14 -31
26 -61 26 -65 0 -11 109 -264 119 -278 5 -5 25 -49 45 -96 20 -47 61 -130 91
-185 30 -54 64 -121 74 -149 11 -27 35 -78 54 -112 20 -34 39 -72 42 -85 16
-49 69 -145 101 -181 19 -20 34 -44 34 -52 0 -8 9 -15 20 -15 46 0 77 -28 100
-89 12 -33 31 -68 42 -78 28 -25 49 -81 47 -122 -2 -32 19 -85 74 -188 33 -61
141 -240 154 -253 7 -8 47 -67 87 -130 41 -63 80 -122 88 -130 7 -8 36 -46 63
-84 28 -38 64 -85 81 -105 17 -20 41 -52 54 -71 13 -19 42 -56 64 -82 23 -25
61 -72 86 -103 l45 -56 3 137 c3 136 2 138 -25 178 -15 23 -30 46 -33 51 -3 6
-32 45 -65 89 -92 120 -105 139 -105 153 0 7 -19 35 -42 62 -69 81 -85 104
-129 186 -23 43 -57 100 -76 127 -38 58 -42 77 -11 56 26 -17 141 -177 164
-228 9 -19 30 -51 48 -71 50 -57 87 -108 143 -194 28 -44 63 -93 77 -108 14
-15 26 -34 26 -41 0 -8 7 -19 15 -26 13 -11 15 -1 15 84 0 77 -4 105 -21 141
-12 25 -25 48 -30 51 -12 7 -12 24 0 24 5 0 18 -15 30 -32 l21 -33 0 1158 c0
1153 0 1157 -20 1157 -18 0 -20 5 -14 39 5 33 3 41 -15 50 -16 9 -21 21 -21
55 0 30 -5 46 -15 50 -10 3 -15 19 -15 46 0 34 -6 46 -35 71 -21 19 -35 40
-35 55 0 14 -11 32 -30 46 -25 18 -30 29 -30 65 0 32 -4 43 -15 43 -10 0 -15
10 -15 30 0 19 -7 33 -20 40 -11 6 -20 21 -20 34 0 13 -7 26 -15 30 -9 3 -15
18 -15 36 0 20 -5 30 -15 30 -11 0 -15 12 -15 45 0 34 -5 47 -20 55 -14 8 -19
17 -15 30 4 13 -1 22 -16 30 -18 10 -21 18 -16 52 5 34 2 41 -14 45 -15 4 -19
14 -19 54 0 37 -4 49 -15 49 -9 0 -15 9 -15 25 0 14 -9 30 -20 37 -17 11 -20
24 -20 90 0 63 -3 78 -15 78 -9 0 -15 10 -15 26 0 16 -12 37 -33 57 -29 27
-33 37 -30 68 4 31 2 37 -17 42 -19 5 -21 11 -19 49 3 34 0 43 -14 46 -12 3
-17 13 -17 38 0 24 -5 34 -15 34 -10 0 -15 10 -15 28 0 17 -8 32 -21 40 -13 9
-18 19 -14 32 4 13 -1 22 -15 30 -15 8 -20 21 -20 55 0 33 -4 44 -17 47 -14 2
-16 13 -14 59 2 54 1 58 -35 87 -27 22 -35 36 -31 51 3 14 -1 22 -14 26 -13 4
-19 16 -19 36 0 19 -5 29 -15 29 -10 0 -15 10 -15 30 0 20 -7 33 -21 41 -19
10 -21 18 -17 65 4 46 2 57 -14 65 -13 7 -18 21 -18 48 0 31 -6 44 -30 64 -16
14 -30 35 -30 47 0 11 -16 34 -35 51 -32 29 -35 35 -35 89 0 49 -3 58 -19 63
-15 3 -18 11 -14 27 4 15 1 26 -11 32 -9 5 -16 21 -16 37 0 20 -6 30 -20 34
-17 4 -20 10 -14 32 5 21 3 27 -15 32 -15 4 -21 13 -21 33 0 16 -7 30 -15 34
-8 3 -15 17 -15 31 0 14 -7 28 -15 31 -8 4 -15 19 -15 34 0 20 -6 31 -21 35
-18 6 -20 12 -15 50 6 37 4 43 -14 48 -16 4 -20 13 -20 50 0 32 -5 47 -16 51
-12 5 -15 18 -13 59 2 49 0 56 -30 85 -24 22 -32 38 -28 52 3 11 2 20 -2 20
-4 0 -16 6 -26 14 -16 11 -17 17 -7 29 11 12 10 18 -5 29 -20 14 -31 108 -13
108 6 0 10 5 10 10 0 6 -7 10 -15 10 -15 0 -19 10 -16 42 1 9 -7 22 -18 28
-16 8 -21 21 -21 54 0 30 -5 46 -15 50 -8 3 -15 17 -15 31 0 14 -7 28 -15 31
-10 4 -15 20 -15 49 0 29 -5 45 -15 49 -11 4 -15 21 -15 66 0 47 -3 60 -15 60
-10 0 -15 10 -15 30 0 19 -7 33 -20 40 -15 8 -19 17 -14 34 4 16 0 25 -10 29
-10 4 -16 18 -16 37 0 18 -6 33 -15 36 -18 7 -20 45 -3 62 10 10 7 16 -10 28
-12 8 -22 26 -22 38 0 13 -7 27 -16 30 -14 5 -16 16 -11 61 5 52 4 55 -29 84
-21 19 -34 40 -34 55 0 14 -7 25 -18 28 -16 5 -18 13 -14 66 4 50 1 63 -12 68
-19 7 -21 30 -3 37 8 4 4 12 -12 25 -16 13 -21 25 -17 39 4 14 1 23 -9 27 -9
3 -15 18 -15 36 0 20 -5 30 -15 30 -11 0 -15 12 -15 45 0 31 -5 47 -17 53 -13
8 -16 22 -14 64 2 40 -2 58 -13 67 -9 8 -16 25 -16 39 0 13 -8 31 -17 39 -13
10 -15 16 -6 19 18 8 16 34 -2 34 -10 0 -15 10 -15 28 0 20 -10 37 -35 58 -28
23 -35 35 -33 59 1 17 -6 42 -16 58 -12 18 -17 37 -13 57 4 18 1 34 -7 43 -15
15 -27 80 -26 143 0 29 -4 43 -15 47 -8 4 -15 18 -15 32 0 14 -7 28 -15 31 -8
4 -15 16 -15 29 0 12 -9 30 -20 40 -11 10 -20 28 -20 40 0 13 -7 25 -15 29
-18 7 -20 62 -2 70 8 3 7 8 -5 16 -12 7 -18 24 -18 51 0 24 -12 64 -30 101
-16 33 -30 66 -30 73 0 7 -7 15 -15 19 -10 3 -15 19 -15 44 0 25 -13 63 -35
106 -19 37 -35 73 -35 81 0 7 -7 15 -15 19 -10 4 -15 20 -15 50 0 24 -7 57
-15 72 -8 16 -17 55 -21 86 -4 32 -13 63 -20 69 -8 6 -14 26 -14 45 0 18 -4
35 -9 39 -5 3 -12 18 -16 34 -3 16 -13 32 -21 35 -9 4 -14 20 -14 50 0 31 -5
48 -16 54 -9 5 -17 24 -19 43 -2 19 -10 48 -19 64 -9 17 -16 35 -16 41 0 7 -7
14 -15 18 -10 3 -15 19 -15 45 0 27 -5 43 -16 49 -13 7 -16 23 -15 65 1 41 -3
58 -14 65 -9 4 -17 24 -19 44 -2 20 -11 44 -20 53 -11 11 -16 34 -16 71 0 41
-4 54 -15 54 -9 0 -15 9 -15 25 0 14 -9 33 -20 42 -11 10 -20 27 -20 39 0 12
-11 29 -25 38 -21 14 -25 24 -25 66 0 26 -6 55 -13 62 -22 22 -57 103 -57 131
0 18 -11 34 -35 53 -29 22 -35 33 -35 66 0 25 -5 41 -15 44 -10 4 -15 20 -15
44 0 31 -6 44 -34 67 -26 22 -35 38 -40 76 -4 26 -11 47 -15 47 -4 0 -16 18
-26 40 -10 22 -24 45 -32 51 -7 6 -13 20 -13 30 0 10 -9 23 -20 29 -16 9 -20
21 -20 65 0 41 -4 56 -17 64 -13 7 -18 23 -19 58 -2 73 -19 138 -43 168 -11
15 -21 35 -21 44 0 9 -9 24 -20 34 -11 9 -20 25 -20 36 0 10 -9 21 -19 24 -16
4 -19 11 -14 46 3 23 1 41 -4 41 -17 0 -33 -24 -33 -50 0 -14 -5 -31 -11 -37
-16 -16 -2 -33 28 -33 23 0 25 -3 20 -29 -3 -16 -3 -32 0 -35 4 -4 8 -27 9
-51 2 -34 -1 -45 -11 -45 -10 0 -15 11 -15 31 0 37 -33 94 -62 110 -16 9 -19
18 -15 45 5 29 2 36 -27 54 -19 11 -40 20 -48 20 -8 0 -24 10 -35 23 -20 21
-94 89 -124 113 -29 23 -70 76 -86 109 -9 19 -25 37 -35 41 -10 3 -18 10 -18
16 0 6 -6 18 -14 27 -55 61 -68 72 -79 68 -21 -7 -14 -50 21 -117 20 -37 36
-83 37 -107 2 -23 6 -46 9 -51 3 -6 -1 -12 -9 -16 -8 -3 -15 -15 -15 -26 0
-11 -6 -20 -13 -20 -20 0 -62 -100 -60 -142 2 -21 -2 -38 -7 -38 -6 0 -10 7
-10 15 0 21 -38 38 -95 42 -27 2 -55 5 -62 5 -7 1 -10 5 -7 10 3 4 1 8 -4 8
-6 0 -13 11 -16 25 -3 13 -15 29 -26 35 -11 6 -20 15 -20 21 0 13 -50 90 -72
109 -9 9 -20 34 -23 55 -10 51 -23 76 -38 73 -23 -4 -57 23 -57 45 0 24 -40
86 -65 100 -8 4 -21 22 -29 40 -7 18 -32 48 -55 67 -23 19 -64 56 -92 83 -28
26 -59 47 -69 47 -9 0 -23 7 -30 15 -7 8 -19 15 -26 15 -8 0 -14 -7 -14 -15 0
-8 -4 -15 -10 -15 -5 0 -10 7 -10 15 0 8 -9 15 -21 15 -16 0 -19 4 -14 20 7
23 -10 60 -29 60 -13 0 -37 -31 -76 -99 -8 -14 -21 -30 -27 -34 -7 -4 -13 -15
-13 -24 0 -13 -3 -13 -15 -3 -12 10 -15 9 -15 -6 -1 -18 -1 -18 -14 -1 -7 9
-21 17 -30 17 -9 0 -16 8 -17 18 0 15 -1 15 -12 -2 -23 -37 -60 -66 -86 -66
-14 0 -46 -10 -71 -21 -33 -15 -67 -21 -128 -22 -97 -1 -93 5 -89 -132 2 -85
1 -91 -20 -100 -13 -5 -23 -15 -23 -21 0 -7 -7 -25 -15 -40 -19 -37 -19 -82 0
-114 8 -14 18 -33 21 -42 3 -10 10 -18 15 -18 4 0 22 -20 40 -45 31 -43 56
-52 44 -15 -5 14 2 23 26 36 29 15 33 15 41 0 5 -9 18 -16 28 -16 11 0 25 -9
32 -20 7 -11 18 -20 24 -20 6 0 23 -13 37 -30 15 -16 32 -30 37 -30 6 0 10 -5
10 -11 0 -19 81 -109 114 -126 49 -25 123 -85 141 -116 9 -15 46 -60 81 -100
35 -40 64 -76 64 -81 0 -9 21 -36 105 -136 30 -36 75 -94 99 -130 25 -36 66
-85 92 -110 26 -25 70 -81 99 -125 29 -44 67 -93 84 -109 17 -17 31 -35 31
-40 0 -6 16 -25 36 -41 20 -17 44 -46 54 -65 10 -19 34 -52 54 -72 20 -20 36
-41 36 -46 0 -5 25 -36 56 -68 30 -33 65 -80 76 -106 11 -26 28 -54 39 -64 10
-9 28 -42 39 -72 12 -30 29 -67 39 -81 28 -41 51 -90 78 -171 14 -41 29 -80
34 -85 4 -6 11 -30 15 -52 4 -30 16 -51 40 -73 37 -33 44 -66 17 -73 -15 -4
-14 -6 5 -12 26 -8 52 -62 52 -106 0 -24 4 -29 24 -29 19 0 25 -7 30 -32 7
-37 73 -175 87 -184 5 -3 9 -15 9 -27 0 -12 12 -44 25 -72 14 -27 25 -58 25
-67 0 -10 4 -18 8 -18 10 0 82 -152 82 -173 0 -9 5 -19 10 -22 6 -3 10 -24 10
-46 0 -21 -4 -39 -10 -39 -5 0 -10 7 -10 15 0 8 -8 22 -18 32 -23 22 -107 150
-124 190 -7 15 -24 37 -38 48 -45 36 -72 69 -99 121 -60 118 -88 165 -159 274
-86 132 -138 210 -167 250 -58 79 -95 136 -95 145 0 5 -32 46 -70 90 -39 44
-90 109 -114 145 -24 36 -71 97 -105 135 -35 39 -78 93 -96 120 -19 28 -55 75
-79 105 -25 30 -60 74 -78 98 -43 57 -326 342 -339 342 -13 0 -51 38 -111 110
-25 30 -89 100 -143 155 -53 55 -112 123 -131 152 -18 28 -47 62 -63 75 -17
12 -51 50 -76 83 -26 33 -61 74 -78 91 -18 17 -50 61 -71 97 -27 48 -50 74
-78 90 -22 12 -52 40 -67 62 -18 27 -36 42 -56 45 -21 4 -31 12 -36 34 -5 16
-16 38 -27 50 -10 11 -26 34 -36 49 -9 15 -27 32 -39 36 -15 6 -26 23 -34 53
-8 31 -19 48 -37 56 -18 8 -27 22 -31 49 -10 58 -12 62 -34 56 -14 -3 -21 -1
-21 8 0 8 -22 39 -50 69 -27 29 -59 67 -72 82 -38 47 -81 88 -110 103 -15 9
-31 30 -38 49 -7 23 -28 48 -58 70 -26 19 -56 48 -67 65 -10 16 -30 34 -42 40
-13 6 -28 22 -33 35 -5 13 -21 32 -36 43 -38 26 -103 94 -120 125 -8 15 -25
30 -38 34 -12 3 -35 25 -50 48 -15 24 -41 56 -58 72 -17 16 -41 46 -54 67 -13
20 -31 37 -39 37 -13 0 -65 93 -65 117 0 6 -17 20 -37 30 -24 13 -42 31 -48
50 -5 16 -17 37 -26 45 -22 23 -76 109 -83 135 -5 16 -1 27 13 40 12 10 21 28
21 40 0 26 30 48 78 58 22 5 37 16 48 36 27 53 48 68 91 62 23 -3 68 4 112 16
75 21 141 20 168 -1 7 -6 23 -8 36 -4 13 3 40 1 60 -5 26 -7 43 -7 58 2 17 8
23 8 29 -2 6 -9 20 -6 57 13 55 29 61 49 18 63 -23 8 -30 16 -30 35 0 14 6 25
13 24 6 -1 19 -2 27 -2 18 -2 20 -32 3 -32 -26 0 40 -27 81 -34 24 -4 55 -15
68 -26 13 -10 44 -22 69 -26 24 -3 48 -13 52 -20 5 -9 32 -16 70 -20 52 -4 63
-2 69 12 4 10 0 22 -8 28 -8 6 -21 27 -29 46 -7 19 -19 42 -27 50 -7 8 -27 32
-44 53 l-32 38 21 29 21 28 -26 28 c-14 16 -37 51 -51 78 -14 28 -40 71 -58
96 -17 25 -41 61 -52 81 -19 34 -19 38 -4 53 9 9 12 16 6 16 -10 0 -4 114 7
125 10 9 72 -17 109 -45 37 -29 89 -50 123 -50 11 0 35 -13 53 -30 19 -16 54
-39 77 -51 49 -25 120 -86 287 -245 65 -63 123 -114 128 -114 5 0 60 -52 123
-115 63 -63 121 -115 129 -115 17 0 44 -28 84 -87 29 -43 40 -51 50 -34 9 14
-34 123 -65 162 -15 20 -26 38 -23 41 2 3 -2 11 -10 17 -8 7 -12 20 -9 28 4
11 -9 30 -39 57 -53 48 -83 99 -83 141 0 17 -7 35 -15 42 -19 14 -10 24 27 28
35 5 89 -19 103 -45 6 -11 20 -20 31 -20 11 0 22 -7 25 -15 4 -8 11 -15 18
-15 6 0 26 -16 45 -35 18 -19 36 -35 41 -35 10 0 105 -88 261 -240 65 -63 124
-120 131 -127 7 -6 22 -23 33 -37 32 -42 74 -91 210 -245 36 -40 72 -85 80
-100 8 -14 29 -37 47 -50 57 -42 248 -286 248 -318 0 -7 5 -13 10 -13 6 0 10
7 10 16 0 20 54 74 73 74 17 0 27 -21 27 -53 0 -12 6 -32 13 -44 80 -141 107
-194 107 -212 0 -11 9 -25 20 -31 10 -6 35 -44 55 -85 35 -75 40 -80 69 -69
22 9 20 24 -3 24 -24 0 -36 18 -33 46 2 15 -4 23 -19 27 -17 5 -20 11 -15 30
4 19 1 26 -15 30 -18 5 -20 11 -14 50 6 40 5 45 -15 50 -19 5 -21 11 -19 49 3
34 0 43 -13 46 -11 2 -18 15 -20 35 -2 24 -8 33 -25 35 -19 3 -21 9 -21 60 1
47 -3 59 -21 70 -12 8 -21 25 -21 39 0 17 -7 27 -21 30 -16 4 -19 11 -15 29 5
17 1 26 -15 34 -17 10 -20 19 -17 51 3 31 0 40 -14 45 -12 3 -18 15 -18 34 0
20 -6 31 -21 35 -18 6 -20 12 -15 43 5 31 1 39 -29 68 -22 20 -35 42 -35 57 0
16 -7 26 -20 30 -15 4 -20 14 -20 36 0 21 -5 31 -15 31 -9 0 -15 10 -15 26 0
17 -12 36 -35 57 -24 21 -33 36 -29 49 4 13 -2 21 -19 27 -19 8 -23 15 -20 35
4 20 0 28 -21 37 -14 7 -28 20 -31 31 -4 10 -10 18 -14 18 -5 0 -20 11 -35 25
-15 14 -32 25 -38 25 -6 0 -8 10 -4 23 4 18 -6 31 -55 70 -42 34 -58 53 -55
65 4 11 -7 28 -33 50 -22 19 -37 40 -35 47 6 14 -108 135 -127 135 -7 0 -9 10
-7 24 4 20 -11 39 -79 107 -45 46 -83 90 -83 98 0 9 -23 38 -50 66 -28 27 -50
57 -50 65 0 16 -135 160 -150 160 -5 0 -10 14 -12 32 -3 29 -7 32 -33 33 -25
0 -31 5 -33 26 -2 19 -94 116 -333 354 -245 245 -329 334 -327 350 2 15 -2 19
-19 18 -15 -2 -41 18 -89 68 -39 40 -74 67 -81 65 -8 -3 -41 24 -80 64 -46 49
-73 70 -90 70 -13 0 -26 7 -29 15 -4 8 -17 15 -29 15 -15 0 -35 13 -53 36 -27
32 -33 35 -65 29 -30 -6 -38 -3 -49 14 -7 12 -23 21 -36 21 -12 0 -25 7 -28
15 -4 10 -20 15 -50 15 -33 0 -46 5 -54 20 -9 17 -17 20 -45 14 -27 -5 -36 -2
-47 15 -7 12 -22 21 -33 21 -12 0 -32 13 -45 30 -17 19 -35 29 -53 30 -15 0
-30 7 -33 15 -4 10 -20 15 -48 15 -24 0 -53 8 -71 20 -16 11 -39 20 -50 20
-11 0 -29 6 -40 14 -11 7 -40 17 -65 21 -24 4 -51 11 -60 15 -8 4 -49 18 -90
30 -41 12 -88 28 -105 35 -62 28 -192 75 -206 75 -8 0 -31 9 -52 20 -20 11
-48 20 -61 20 -13 0 -29 7 -36 15 -7 8 -19 15 -28 15 -18 0 -218 67 -252 85
-14 7 -46 16 -72 19 -26 4 -50 11 -52 15 -3 5 -49 18 -103 30 -54 13 -114 27
-133 33 -19 6 -95 14 -169 17 -90 5 -136 11 -139 19 -3 9 -46 12 -150 13 -150
1 -231 6 -572 33 -107 9 -267 20 -355 26 -176 11 -996 11 -1115 0z m2560 -230
c0 -17 -49 -35 -61 -23 -6 6 -8 16 -5 22 9 14 66 14 66 1z m450 -159 c0 -29
-65 -43 -100 -21 -19 12 -9 20 32 30 55 13 68 11 68 -9z m172 -12 c73 -37 55
-49 -44 -28 -61 13 -73 21 -64 44 7 20 50 13 108 -16z m153 -58 c3 -5 1 -12
-4 -15 -12 -8 -41 3 -41 15 0 12 37 12 45 0z m405 -146 c0 -19 -17 -19 -50 0
l-25 14 38 1 c26 0 37 -4 37 -15z m97 -51 c12 -7 41 -18 64 -23 36 -8 46 -7
70 11 16 12 35 18 44 14 14 -5 12 -10 -12 -31 l-28 -24 63 -1 c73 0 99 -11
112 -46 9 -22 14 -24 45 -18 29 5 41 2 60 -16 15 -14 25 -18 30 -11 9 16 71
13 84 -3 24 -29 135 -87 155 -82 21 5 80 -26 93 -49 8 -14 107 -84 220 -157
40 -26 73 -57 93 -88 17 -27 40 -52 50 -55 10 -3 35 -26 55 -51 20 -24 64 -62
97 -84 67 -43 73 -50 124 -145 39 -74 40 -95 3 -40 -13 19 -39 42 -56 50 -38
18 -43 41 -10 56 17 7 14 8 -17 3 -34 -5 -43 -2 -75 29 -20 19 -48 41 -63 48
-44 23 -198 130 -198 138 0 11 -132 92 -254 156 -60 31 -121 64 -135 74 -42
29 -299 161 -314 161 -7 0 -47 18 -88 39 -41 21 -95 46 -121 55 -35 12 -137
68 -167 92 -1 1 0 8 4 14 7 12 38 5 72 -16z m-1382 -399 c0 -5 -14 -11 -32
-13 -26 -3 -32 -8 -35 -30 -3 -23 -12 -30 -67 -50 -37 -13 -120 -29 -195 -37
-138 -16 -364 -20 -381 -7 -5 4 -11 16 -13 28 -3 19 3 22 74 28 42 3 94 6 116
6 46 0 51 19 6 22 -18 1 -42 2 -53 3 -11 1 -33 3 -49 4 -18 0 -26 5 -20 10 17
17 304 44 409 39 55 -3 123 -2 150 2 62 10 90 8 90 -5z m3065 -755 c0 -5 -2
-10 -4 -10 -3 0 -8 5 -11 10 -3 6 -1 10 4 10 6 0 11 -4 11 -10z m70 -130 c0
-5 -4 -10 -10 -10 -5 0 -10 5 -10 10 0 6 5 10 10 10 6 0 10 -4 10 -10z m-486
-86 c9 -3 16 -12 16 -19 0 -6 12 -25 26 -40 23 -25 24 -29 10 -37 -9 -5 -14
-13 -11 -19 4 -5 -1 -9 -10 -9 -9 0 -13 5 -10 11 4 5 -4 20 -17 32 -31 29 -58
73 -51 81 8 8 27 8 47 0z m-9864 -994 c-6 -11 -13 -20 -15 -20 -3 0 -5 9 -5
20 0 11 7 20 15 20 13 0 14 -4 5 -20z m3023 -75 c7 -17 -8 -102 -34 -195 -9
-36 -20 -81 -23 -100 -4 -19 -20 -55 -36 -79 -30 -44 -97 -242 -120 -356 -7
-33 -16 -107 -19 -165 -4 -58 -11 -112 -15 -119 -5 -8 -12 -52 -17 -100 -11
-118 -33 -226 -53 -255 -11 -18 -16 -48 -16 -105 0 -44 -5 -125 -11 -180 -10
-96 -9 -156 3 -121 26 76 40 140 48 225 16 152 25 206 44 247 9 21 16 58 16
83 0 26 5 56 12 68 6 12 17 45 24 72 7 28 17 64 23 80 5 17 20 64 32 105 12
41 40 120 61 175 22 55 44 131 49 169 11 83 36 136 72 154 15 7 27 21 27 31 0
10 11 23 24 29 49 22 53 2 62 -363 4 -121 6 -240 5 -265 -3 -219 -9 -357 -20
-420 -9 -60 -9 -117 0 -277 9 -149 10 -218 2 -261 -15 -81 -4 -234 17 -247 10
-6 13 4 40 135 12 58 30 124 41 146 11 23 22 66 25 95 4 30 12 72 19 94 7 22
16 76 20 120 9 102 36 216 66 277 4 9 13 52 18 96 6 48 23 109 42 154 17 40
38 90 47 111 18 44 37 47 59 9 16 -27 68 -60 87 -54 19 6 47 -11 63 -39 9 -16
24 -29 33 -29 22 0 79 -37 107 -70 18 -23 36 -31 73 -36 28 -4 55 -13 61 -20
6 -7 15 -48 21 -91 8 -56 16 -84 32 -100 11 -11 26 -27 33 -35 28 -31 56 -51
118 -82 37 -18 224 -66 259 -66 14 0 28 -5 32 -12 5 -8 11 -5 20 7 13 18 14
18 34 0 16 -14 23 -16 29 -7 5 9 47 11 157 8 126 -3 161 -1 229 17 44 11 85
26 90 32 6 7 27 15 48 19 20 4 37 11 37 17 0 6 20 19 45 30 48 21 60 35 23 24
l-23 -6 24 20 c13 12 36 21 51 21 31 0 95 24 105 40 4 6 10 8 15 5 4 -3 10 2
14 10 3 10 19 15 44 15 69 0 160 43 130 61 -8 5 1 21 30 53 23 25 42 50 42 56
0 5 8 19 17 30 10 11 24 55 33 97 l15 78 73 -3 c39 -1 72 2 72 7 0 5 14 14 32
20 26 9 35 8 50 -6 17 -15 20 -15 28 -3 7 12 12 12 22 2 6 -6 25 -12 40 -12
20 0 28 -5 28 -17 0 -11 15 -24 40 -35 38 -16 41 -16 58 1 23 25 76 51 102 51
11 0 40 -18 64 -40 41 -38 66 -50 66 -31 0 5 14 22 30 38 27 26 41 31 102 36
42 4 79 2 90 -4 11 -6 45 -12 76 -14 42 -3 58 -8 60 -19 4 -17 11 -18 102 -21
61 -1 112 -13 122 -28 4 -7 18 -4 40 6 56 26 90 32 102 16 16 -21 80 -59 99
-59 9 0 21 -9 27 -20 6 -11 17 -20 25 -20 17 0 52 44 70 88 11 24 20 32 39 32
14 0 28 -4 31 -10 10 -17 19 -12 40 23 27 45 36 115 18 150 -18 36 -8 88 18
94 13 4 19 14 19 34 0 17 9 37 23 50 12 11 33 30 47 43 79 73 106 77 174 31
24 -16 61 -29 104 -35 51 -7 72 -15 88 -33 11 -13 38 -27 58 -31 45 -9 120
-79 150 -141 25 -50 53 -83 89 -101 15 -8 27 -19 27 -25 0 -6 19 -30 43 -53
23 -23 50 -57 59 -74 12 -22 27 -34 47 -38 17 -4 35 -12 41 -19 6 -7 19 -11
28 -8 12 3 38 -17 80 -61 55 -57 62 -69 62 -104 0 -28 7 -49 24 -69 13 -16 29
-47 35 -69 6 -23 38 -81 71 -130 33 -49 60 -93 60 -99 0 -6 11 -30 23 -55 13
-25 39 -88 57 -140 19 -52 48 -120 65 -150 17 -30 37 -71 44 -90 24 -63 77
-181 137 -305 18 -38 38 -91 44 -117 5 -26 28 -84 50 -130 22 -46 40 -89 40
-96 0 -13 24 -76 62 -164 15 -33 19 -59 15 -88 -6 -50 -12 -57 -31 -41 -8 7
-20 10 -26 6 -14 -9 -13 -118 2 -133 8 -8 15 -82 20 -226 7 -188 10 -219 28
-251 11 -19 20 -47 20 -62 0 -27 41 -101 92 -165 16 -20 34 -52 40 -70 6 -18
21 -47 34 -64 12 -17 26 -48 30 -70 3 -21 10 -44 15 -50 4 -5 7 -32 5 -60 -4
-56 2 -94 15 -94 5 0 9 3 8 8 -1 4 2 17 6 30 8 24 25 30 25 8 0 -7 10 -16 22
-19 18 -5 19 -8 8 -21 -7 -9 -20 -16 -30 -16 -9 0 -22 -12 -29 -26 -10 -22 -9
-30 4 -44 18 -20 5 -36 -20 -26 -9 3 -12 0 -8 -10 3 -7 16 -14 29 -14 17 0 22
-4 18 -15 -4 -8 -17 -15 -30 -15 -16 0 -22 4 -18 14 8 21 -11 28 -41 16 -20
-8 -24 -14 -17 -23 5 -6 13 -32 17 -57 9 -51 60 -203 80 -234 7 -12 16 -41 20
-66 4 -25 11 -50 16 -56 5 -6 18 -39 28 -75 11 -35 27 -74 35 -85 21 -29 66
-37 90 -16 17 16 19 16 33 -5 12 -18 19 -21 35 -12 13 7 29 7 54 -1 49 -17 61
-8 69 49 4 28 11 51 15 51 4 0 11 -23 15 -52 4 -28 14 -66 21 -84 22 -53 19
-57 -33 -49 -27 3 -70 13 -98 20 -33 9 -127 15 -283 18 -128 2 -235 7 -239 10
-10 10 -58 8 -88 -3 -37 -14 -203 -1 -221 18 -12 12 -45 14 -160 14 -80 -1
-151 1 -159 4 -17 7 -42 73 -50 137 -4 32 -16 58 -35 81 -35 39 -110 191 -110
222 0 33 -58 178 -81 202 -11 12 -26 22 -33 22 -32 0 -35 -75 -6 -139 11 -24
27 -71 35 -105 7 -33 39 -117 71 -186 47 -105 57 -137 62 -197 3 -56 1 -74 -9
-78 -8 -3 -111 -6 -229 -8 l-215 -2 0 31 c0 18 -9 42 -20 54 -18 20 -20 36
-20 149 0 113 -2 130 -22 164 -13 21 -23 54 -23 73 0 19 -11 85 -24 147 -14
62 -34 168 -47 237 -12 69 -32 159 -45 200 -13 41 -28 104 -33 140 -5 36 -14
78 -20 93 -6 16 -11 41 -11 56 0 15 -9 54 -20 86 -11 32 -20 77 -20 99 0 23
-12 68 -26 101 -44 106 -72 208 -78 290 -4 44 -15 98 -26 120 -10 22 -21 56
-25 75 -4 19 -16 46 -27 60 -24 33 -38 86 -43 166 -4 75 -29 198 -50 247 -8
20 -15 45 -15 57 0 11 -12 50 -27 86 l-26 67 -19 -22 c-16 -21 -18 -47 -17
-314 1 -161 6 -312 11 -337 5 -25 11 -102 14 -171 2 -70 8 -146 13 -170 6 -24
11 -98 11 -164 1 -118 9 -200 29 -302 6 -29 15 -74 20 -100 5 -27 16 -77 25
-113 9 -36 21 -94 27 -130 5 -36 17 -82 25 -103 8 -20 14 -55 14 -78 0 -22 6
-55 14 -73 7 -18 17 -53 20 -77 8 -57 34 -208 47 -279 6 -30 14 -105 18 -166
7 -94 12 -119 37 -165 29 -55 60 -73 87 -51 7 6 50 13 95 17 75 7 85 10 94 31
20 43 48 24 48 -31 0 -27 -22 -35 -95 -35 -28 0 -59 -6 -70 -14 -14 -9 -66
-15 -170 -18 -114 -4 -158 -9 -182 -22 -42 -21 -199 -49 -239 -41 -22 4 -38 0
-57 -15 -21 -17 -40 -20 -112 -20 -60 0 -96 -5 -118 -16 -17 -9 -61 -19 -97
-21 -36 -2 -84 -13 -108 -25 -27 -12 -52 -18 -68 -14 -25 7 -139 -28 -150 -45
-6 -10 -107 -12 -117 -3 -3 4 1 23 9 43 55 128 82 264 94 461 6 94 14 166 20
168 5 2 10 18 10 35 0 39 25 245 46 387 21 133 33 695 15 713 -16 16 -20 7
-42 -75 -31 -118 -38 -166 -49 -298 -17 -216 -38 -394 -60 -496 -36 -166 -58
-303 -53 -325 4 -12 -1 -25 -13 -34 -15 -10 -20 -32 -26 -102 -14 -185 -10
-249 17 -303 33 -65 32 -81 -9 -135 -19 -24 -37 -54 -41 -64 -6 -20 -57 -40
-100 -41 -11 0 -72 -14 -135 -31 -63 -16 -128 -30 -145 -29 -16 0 -52 -4 -78
-11 -59 -14 -78 -3 -53 32 9 13 16 27 16 31 0 12 -168 -1 -220 -17 -25 -7 -72
-19 -105 -25 -33 -7 -78 -16 -100 -21 -22 -5 -80 -16 -130 -24 -49 -9 -110
-20 -135 -26 -25 -6 -93 -14 -152 -19 -59 -5 -116 -14 -127 -19 -11 -6 -48
-11 -83 -11 -35 0 -90 -7 -123 -15 -33 -8 -85 -15 -115 -15 -30 0 -73 -5 -95
-11 -47 -13 -58 -14 -195 -30 -58 -6 -154 -25 -215 -41 -60 -17 -162 -36 -225
-44 -63 -8 -134 -21 -158 -29 -23 -8 -64 -15 -90 -15 -26 0 -65 -5 -87 -11
-22 -6 -65 -15 -95 -20 -30 -4 -70 -13 -89 -19 -19 -5 -81 -13 -138 -16 -97
-7 -104 -8 -109 -30 -4 -17 -19 -27 -52 -38 -91 -30 -207 -71 -217 -77 -14
-10 -203 -54 -315 -75 -52 -9 -100 -21 -105 -25 -6 -4 -35 -11 -65 -14 -30 -3
-73 -12 -95 -20 -22 -7 -87 -18 -145 -25 -58 -7 -112 -18 -120 -26 -9 -7 -63
-20 -120 -28 -58 -8 -127 -20 -155 -25 -27 -6 -81 -14 -120 -20 -73 -9 -198
-43 -250 -67 -16 -7 -50 -17 -74 -20 -25 -4 -56 -13 -70 -21 -14 -7 -34 -13
-43 -13 -9 0 -54 -13 -100 -28 -146 -50 -185 -62 -207 -62 -21 0 -21 1 -4 38
9 20 18 54 19 75 1 31 7 41 30 53 45 24 59 54 24 54 -11 0 -24 8 -27 18 -4 9
-17 28 -30 42 -27 29 -29 40 -8 40 12 0 15 13 15 56 0 30 4 85 10 122 5 37 14
211 20 386 6 176 15 342 21 370 5 28 12 98 15 156 4 58 12 119 19 135 7 17 18
98 23 180 13 188 38 410 47 425 4 6 11 35 15 63 18 104 39 208 46 219 4 6 13
46 20 87 6 42 16 94 22 116 6 22 15 69 22 105 6 36 19 81 29 100 10 19 21 57
25 84 6 36 16 57 37 77 16 15 29 36 29 47 0 11 7 37 16 58 9 21 17 52 17 68 2
24 7 32 25 34 13 2 22 10 22 21 0 10 6 24 14 30 7 6 21 37 31 68 10 32 27 65
38 74 11 8 21 29 23 45 16 146 40 282 53 297 5 7 15 40 21 74 7 35 16 61 20
58 14 -8 23 164 10 180 -6 8 -8 20 -4 27 5 7 9 51 9 99 1 54 7 97 17 116 8 16
23 58 33 91 16 53 22 62 42 62 33 0 60 31 68 80 4 26 10 38 15 30 4 -6 12 22
19 64 6 42 15 84 20 94 10 20 29 75 41 117 5 17 15 48 24 70 8 22 15 53 16 68
0 16 6 41 14 55 25 47 76 188 76 210 0 11 7 25 15 29 8 5 17 30 21 58 5 43 54
196 84 260 30 67 50 119 50 132 0 8 20 54 44 101 25 48 48 101 52 117 4 17 15
46 26 65 10 19 18 39 18 45 0 6 23 55 50 109 28 54 50 104 50 111 0 6 22 50
50 96 27 46 50 87 50 92 0 4 6 7 13 7 10 0 11 -15 7 -60 -4 -46 -12 -66 -33
-88 -34 -35 -50 -122 -23 -122 9 0 19 -7 22 -15 6 -15 45 -21 57 -9 3 4 -3 18
-13 32 -24 29 -25 42 -6 68 14 18 15 18 25 -8 11 -29 31 -38 31 -14 0 7 7 19
15 26 8 7 15 20 15 29 0 9 9 22 20 29 14 8 20 23 20 46 0 19 4 38 10 41 13 8
60 -24 60 -41 0 -7 12 -21 26 -31 20 -13 30 -14 44 -5 14 9 19 8 24 -3 7 -19
26 -19 26 -1 0 8 13 20 29 27 16 7 37 29 46 49 10 19 20 29 22 23 10 -27 31
-11 37 27 6 40 28 54 39 25z m4487 -55 c0 -10 -4 -21 -9 -24 -10 -7 -23 33
-15 46 8 13 24 -1 24 -22z m3630 0 c0 -5 -4 -10 -10 -10 -5 0 -10 5 -10 10 0
6 5 10 10 10 6 0 10 -4 10 -10z m-9014 -105 c-7 -18 -26 -20 -26 -2 0 18 24
41 28 27 2 -6 1 -17 -2 -25z m5442 3 c7 -7 12 -26 12 -43 0 -17 5 -36 11 -42
6 -6 9 -18 7 -27 -2 -14 -8 -12 -30 9 -23 21 -28 35 -28 70 0 46 7 54 28 33z
m-5441 -200 c-3 -8 -6 -5 -6 6 -1 11 2 17 5 13 3 -3 4 -12 1 -19z m105 -40 c2
-40 -2 -61 -16 -77 -8 -9 -17 -31 -21 -48 -10 -50 -25 -50 -25 1 0 25 5 48 10
51 6 3 15 26 21 51 12 47 28 58 31 22z m5148 -102 c0 -26 -9 -16 -20 25 -9 31
-8 32 5 15 8 -11 15 -29 15 -40z m50 -166 c0 -5 -5 -10 -11 -10 -5 0 -7 5 -4
10 3 6 8 10 11 10 2 0 4 -4 4 -10z m4240 -65 c0 -25 -23 -35 -35 -15 -10 16 2
40 20 40 9 0 15 -9 15 -25z m-3250 -290 c0 -14 -4 -25 -10 -25 -5 0 -10 11
-10 25 0 14 5 25 10 25 6 0 10 -11 10 -25z m410 -265 c22 -26 40 -52 40 -56 0
-9 37 -65 81 -124 15 -19 30 -45 34 -57 3 -13 11 -23 16 -23 5 0 9 -7 9 -15 0
-9 7 -18 15 -21 8 -4 15 -14 15 -23 0 -9 16 -47 35 -85 19 -39 35 -77 35 -87
0 -9 6 -22 14 -28 8 -7 18 -27 22 -44 3 -18 26 -71 50 -118 24 -47 44 -94 44
-103 0 -10 23 -63 50 -118 28 -55 50 -106 50 -113 0 -7 7 -18 15 -25 8 -7 17
-28 21 -49 4 -20 14 -45 24 -56 18 -21 38 -56 65 -115 9 -19 37 -76 61 -127
24 -50 44 -96 44 -102 0 -6 4 -11 8 -11 5 0 21 -33 36 -72 38 -101 67 -167 92
-208 11 -19 27 -53 34 -75 7 -22 30 -76 50 -121 21 -45 41 -95 45 -112 3 -17
12 -36 20 -42 7 -6 16 -26 19 -45 4 -19 15 -40 25 -47 10 -7 21 -30 25 -51 4
-21 14 -41 22 -44 7 -3 14 -15 14 -28 0 -20 18 -65 75 -190 8 -16 18 -54 24
-83 6 -29 18 -63 26 -75 8 -12 21 -54 29 -92 8 -39 22 -87 30 -107 9 -21 16
-48 16 -62 0 -13 9 -43 20 -67 11 -25 20 -66 20 -95 0 -37 6 -58 20 -74 15
-17 19 -32 15 -50 -7 -33 10 -80 29 -80 17 0 26 -22 26 -66 0 -22 9 -48 26
-69 l25 -33 -22 -52 c-20 -48 -19 -85 2 -47 6 9 13 17 17 17 13 0 32 -54 32
-92 0 -21 3 -38 8 -38 19 0 45 -73 43 -119 -1 -32 3 -52 13 -60 21 -18 41
-108 27 -125 -9 -10 -8 -15 3 -19 8 -3 18 -22 22 -42 3 -19 10 -38 16 -41 5
-3 4 -11 -3 -20 -8 -10 -7 -17 5 -29 11 -11 16 -36 17 -78 0 -93 5 -131 16
-152 7 -12 8 -28 1 -47 -6 -15 -7 -36 -2 -46 16 -37 36 -130 39 -185 2 -32 10
-68 18 -80 8 -12 17 -58 21 -102 4 -44 11 -93 16 -110 5 -16 11 -55 13 -85 5
-66 28 -163 39 -171 5 -3 13 -32 18 -64 5 -32 15 -62 22 -67 22 -13 44 -9 63
12 10 11 24 20 32 20 32 0 36 54 33 538 0 29 6 28 40 -8 35 -38 46 -38 53 0 6
25 12 31 46 36 34 5 42 12 60 48 11 22 23 58 26 78 7 47 15 51 53 32 28 -14
33 -14 57 2 27 17 33 40 13 47 -7 2 3 12 22 22 57 30 89 57 83 71 -3 8 3 17
13 21 11 3 22 11 26 17 5 7 8 7 8 -1 0 -7 8 -13 18 -13 10 0 23 -5 30 -12 12
-12 42 5 42 26 0 6 18 19 39 29 21 9 44 29 51 43 22 41 48 50 71 25 11 -12 23
-21 27 -21 4 0 19 -10 33 -23 36 -32 74 -197 98 -427 5 -47 16 -106 25 -132
10 -30 17 -98 21 -185 2 -76 8 -192 11 -257 6 -114 -5 -244 -27 -321 -10 -36
-12 -87 -5 -177 3 -39 1 -70 -4 -73 -6 -3 -10 -12 -10 -18 0 -7 9 -1 20 13 25
33 32 15 28 -76 -3 -57 -5 -64 -11 -39 -16 58 -19 61 -28 30 -5 -16 -9 -55 -8
-85 1 -30 -2 -100 -6 -156 -7 -85 -5 -106 9 -130 9 -16 21 -42 27 -59 6 -16
13 -24 16 -17 3 6 12 12 20 12 13 0 14 -17 10 -117 -3 -65 -14 -174 -25 -243
-26 -159 -32 -423 -13 -579 9 -77 10 -139 5 -190 -5 -42 -7 -105 -6 -141 2
-41 -2 -81 -12 -109 -22 -60 -20 -136 5 -201 23 -61 26 -113 10 -215 -14 -94
-14 -207 0 -242 14 -34 15 -183 1 -209 -5 -11 -12 -36 -16 -57 -7 -36 -9 -38
-37 -32 -27 6 -29 4 -29 -21 0 -15 8 -36 17 -46 15 -17 15 -23 -10 -96 -14
-42 -31 -108 -36 -146 -7 -45 -17 -76 -31 -91 -11 -12 -20 -35 -20 -53 0 -17
-7 -52 -15 -77 -10 -29 -13 -58 -9 -81 5 -27 2 -42 -12 -62 -48 -68 -74 -130
-74 -180 0 -33 -6 -57 -19 -73 -10 -14 -21 -36 -23 -49 -2 -15 -11 -26 -26
-30 -17 -4 -30 -21 -47 -65 -14 -33 -25 -67 -25 -75 0 -8 -9 -26 -20 -40 -11
-14 -20 -31 -20 -38 0 -7 -17 -50 -39 -95 -42 -89 -74 -164 -101 -242 -10 -27
-25 -54 -33 -60 -9 -6 -27 -36 -40 -66 -33 -71 -83 -139 -103 -139 -8 0 -36
-22 -62 -49 -26 -26 -54 -51 -63 -54 -9 -3 -25 -28 -34 -55 -10 -28 -28 -55
-39 -61 -28 -15 -212 -41 -285 -41 -60 0 -111 15 -111 33 0 5 10 22 23 37 22
25 75 161 93 235 4 17 16 48 26 69 24 47 31 106 12 106 -21 0 -44 -30 -44 -57
0 -16 -7 -27 -18 -30 -17 -4 -28 -22 -64 -98 -7 -16 -42 -78 -77 -137 -63
-108 -90 -133 -117 -106 -14 14 -9 46 30 183 19 64 43 236 56 390 13 161 26
253 37 268 6 7 15 49 22 94 6 45 18 94 26 110 7 15 18 87 25 158 6 72 15 139
20 150 11 24 30 237 30 332 0 37 7 109 16 158 11 61 17 168 19 330 2 132 11
328 22 435 12 133 18 277 18 455 -1 239 -15 501 -29 524 -3 5 -11 103 -17 218
-6 114 -15 210 -20 211 -5 2 -9 45 -10 95 0 51 -7 164 -15 252 -16 172 -32
506 -38 780 -4 156 -16 270 -31 295 -4 6 -13 63 -20 128 -8 64 -19 149 -24
187 -5 39 -13 133 -17 209 -4 83 -13 150 -21 165 -7 14 -13 55 -13 91 -1 36
-7 101 -15 145 -8 44 -15 95 -15 113 0 18 -5 43 -11 54 -6 11 -15 63 -19 114
-6 64 -13 99 -24 109 -9 9 -16 31 -16 50 0 18 -11 80 -24 137 -14 57 -28 132
-31 168 -4 36 -13 81 -20 100 -7 19 -19 64 -26 100 -6 36 -18 77 -26 93 -8 15
-18 53 -24 85 -10 56 -18 77 -65 177 -13 28 -35 97 -50 155 -15 58 -30 110
-34 115 -5 6 -11 28 -15 50 -4 22 -25 92 -47 155 -22 63 -46 138 -53 165 -7
28 -19 66 -28 85 -27 63 -64 164 -77 210 -7 25 -36 97 -65 160 -29 64 -56 131
-60 150 -4 19 -11 41 -16 50 -13 23 -59 140 -74 186 -7 23 -29 66 -49 95 -19
30 -43 83 -52 119 -9 36 -29 83 -45 105 -18 25 -36 72 -48 125 -22 96 -40 144
-69 180 -29 37 -102 193 -102 217 0 28 -77 181 -106 210 -12 12 -25 37 -29 54
-7 31 -49 126 -80 179 -8 14 -25 50 -39 80 -14 30 -43 85 -65 121 -21 37 -44
82 -50 102 -7 19 -20 42 -31 52 -21 19 -36 77 -26 94 12 19 65 -10 106 -59z
m-9725 -112 c-11 -76 -46 -170 -110 -303 -35 -71 -70 -146 -79 -165 -17 -39
-22 -47 -83 -137 -24 -35 -43 -67 -43 -71 0 -5 -13 -24 -30 -42 -16 -18 -30
-40 -30 -47 0 -7 -6 -13 -14 -13 -10 0 -17 -16 -22 -45 -7 -49 -18 -58 -28
-22 -9 35 -7 66 9 116 45 144 55 179 55 199 0 12 5 22 10 22 6 0 10 7 10 15 0
20 47 90 115 173 17 20 53 75 79 122 27 47 64 108 82 136 19 28 34 58 34 67 0
15 25 36 43 37 5 0 6 -19 2 -42z m-415 -524 c0 -8 -4 -12 -10 -9 -5 3 -10 10
-10 16 0 5 5 9 10 9 6 0 10 -7 10 -16z m13660 -194 c0 -19 -5 -30 -14 -30 -22
0 -28 17 -16 40 16 29 30 25 30 -10z m-2518 -2271 c31 -63 34 -85 12 -93 -21
-8 -49 -8 -41 0 4 4 -2 19 -13 34 -20 28 -26 73 -14 105 10 26 27 12 56 -46z
m-192 1 c0 -5 -2 -10 -4 -10 -3 0 -8 5 -11 10 -3 6 -1 10 4 10 6 0 11 -4 11
-10z m-20 -40 c0 -5 9 -10 21 -10 15 0 20 -5 17 -22 -2 -17 -10 -23 -28 -23
-21 0 -26 5 -28 33 -2 18 1 32 7 32 6 0 11 -4 11 -10z m76 -148 c-4 -3 -13 3
-21 14 -12 17 -12 21 3 32 15 11 17 10 20 -13 2 -15 1 -29 -2 -33z m0 -34 c-3
-13 -6 -30 -7 -38 0 -8 -5 -2 -9 14 -10 31 -6 46 12 46 6 0 8 -10 4 -22z m129
-8 c6 -20 0 -40 -13 -40 -4 0 -8 14 -9 30 -2 34 12 41 22 10z m-67 -75 c-3 -3
-9 2 -12 12 -6 14 -5 15 5 6 7 -7 10 -15 7 -18z m-10694 -46 c-8 -22 -12 -44
-9 -49 2 -4 -3 -14 -12 -21 -15 -12 -16 -11 -11 9 4 12 3 22 -1 22 -4 0 -5 16
-3 34 4 31 11 39 43 45 4 0 0 -17 -7 -40z m10791 -28 c3 -5 1 -12 -5 -16 -5
-3 -10 1 -10 9 0 18 6 21 15 7z m-25 -197 c0 -8 -4 -14 -10 -14 -5 0 -10 9
-10 21 0 11 5 17 10 14 6 -3 10 -13 10 -21z m2579 -27 c-1 -36 -2 -38 -9 -17
-12 36 -12 72 0 65 6 -3 10 -25 9 -48z m-3885 -176 c6 -10 -134 -20 -224 -15
-36 2 -85 3 -110 4 -33 0 -41 3 -30 10 18 12 357 13 364 1z m-177 -86 c11 -8
40 -17 64 -21 24 -4 50 -11 57 -17 10 -8 267 -21 497 -27 23 0 27 -3 15 -10
-12 -7 -8 -10 15 -10 103 -1 385 -22 412 -31 17 -5 130 -13 250 -18 243 -8
240 -7 337 -86 82 -67 117 -156 131 -335 4 -47 11 -90 15 -95 5 -6 12 -46 15
-90 4 -44 11 -93 16 -109 8 -27 45 -190 69 -306 5 -25 12 -70 16 -100 3 -30
12 -64 19 -75 13 -19 19 -93 30 -358 3 -64 10 -128 14 -140 5 -13 12 -54 16
-92 3 -39 13 -106 22 -150 28 -146 31 -179 38 -470 4 -160 11 -294 16 -299 12
-14 11 -431 -1 -497 -6 -30 -15 -133 -20 -229 -5 -96 -16 -202 -24 -235 -9
-33 -20 -100 -26 -149 -6 -49 -17 -104 -25 -122 -7 -18 -17 -66 -21 -106 -4
-40 -13 -86 -19 -103 -7 -16 -16 -52 -20 -79 -4 -28 -15 -71 -26 -98 -10 -26
-23 -78 -29 -115 -6 -37 -15 -72 -20 -78 -4 -5 -13 -36 -19 -68 -6 -33 -27
-86 -50 -125 -21 -37 -42 -83 -46 -102 -4 -19 -11 -39 -15 -45 -4 -5 -11 -30
-15 -55 -4 -25 -18 -65 -31 -90 -13 -25 -24 -49 -24 -55 0 -5 -12 -32 -25 -60
-14 -27 -25 -55 -25 -62 0 -12 -15 -44 -64 -143 -13 -25 -26 -63 -30 -85 -4
-22 -11 -44 -16 -50 -5 -5 -16 -30 -26 -55 -10 -25 -33 -68 -51 -97 -18 -29
-33 -55 -33 -60 0 -4 -22 -45 -48 -92 -27 -48 -52 -99 -56 -116 -4 -16 -14
-37 -22 -45 -8 -8 -37 -51 -66 -95 -28 -44 -70 -102 -92 -129 -23 -27 -54 -68
-71 -91 -16 -23 -66 -81 -109 -128 -44 -48 -87 -99 -97 -113 -10 -15 -124
-136 -254 -270 -130 -134 -248 -258 -261 -276 -14 -18 -53 -60 -88 -93 -35
-33 -101 -103 -146 -155 -45 -52 -95 -108 -111 -123 -17 -16 -41 -46 -54 -67
-13 -21 -51 -59 -84 -85 -33 -26 -62 -53 -65 -61 -3 -8 -12 -14 -20 -14 -7 0
-29 -17 -48 -37 -18 -21 -56 -56 -83 -78 -27 -22 -68 -57 -89 -78 -22 -20 -43
-37 -48 -37 -4 0 -15 -8 -25 -18 -19 -19 -104 -85 -182 -142 -43 -31 -145
-113 -220 -177 -14 -12 -31 -22 -38 -23 -7 0 -17 -9 -23 -20 -6 -11 -25 -27
-43 -36 -18 -9 -45 -29 -62 -45 -16 -15 -57 -42 -90 -60 -33 -17 -66 -40 -73
-50 -7 -11 -20 -19 -28 -19 -9 0 -27 -9 -41 -20 -14 -11 -31 -20 -38 -20 -7 0
-42 -16 -79 -35 -37 -19 -74 -35 -82 -35 -8 0 -14 -4 -14 -9 0 -5 -33 -15 -72
-22 -40 -7 -86 -19 -103 -27 -24 -13 -73 -16 -245 -16 -214 -1 -215 -1 -290
28 -41 16 -86 34 -100 41 -14 7 -63 27 -108 45 -46 17 -149 62 -228 101 -80
38 -153 69 -164 69 -11 0 -20 4 -20 9 0 5 -28 14 -62 20 -34 6 -64 14 -67 19
-3 5 -28 19 -56 33 -27 13 -70 36 -94 51 -25 16 -52 28 -62 28 -9 0 -22 7 -29
15 -6 8 -46 30 -88 50 -43 20 -94 45 -114 56 -20 10 -43 19 -51 19 -7 0 -28
11 -46 24 -18 13 -47 27 -66 30 -18 4 -35 13 -38 20 -3 7 -21 16 -41 20 -19 4
-42 16 -49 27 -8 11 -52 39 -98 62 -119 61 -232 123 -319 174 -41 24 -83 49
-92 54 -10 5 -24 12 -32 17 -8 4 -43 26 -78 50 -78 52 -86 58 -120 80 -14 9
-46 31 -71 48 -24 17 -73 48 -108 68 -35 20 -84 52 -109 71 -25 18 -49 34 -54
34 -6 1 -19 10 -30 20 -12 11 -35 27 -52 38 -18 10 -64 41 -103 68 -39 28 -79
55 -89 60 -55 33 -262 241 -262 263 0 6 -9 14 -20 17 -11 4 -43 34 -70 68 -27
34 -66 80 -87 102 -20 22 -61 72 -91 110 -30 39 -59 75 -66 80 -6 6 -32 42
-58 80 -25 39 -60 82 -77 98 -17 15 -31 33 -31 40 0 7 -14 26 -31 43 -30 28
-102 129 -144 201 -11 19 -35 51 -53 71 -19 21 -43 54 -55 76 -39 69 -45 79
-54 85 -14 9 -92 141 -142 239 -24 45 -47 82 -52 82 -5 0 -9 7 -9 16 0 9 -17
45 -39 78 -21 34 -58 98 -81 141 -23 44 -54 101 -68 127 -15 27 -48 88 -75
138 -26 49 -56 105 -67 122 -11 18 -23 40 -26 48 -14 36 -66 148 -85 185 -12
22 -36 72 -56 110 -19 39 -38 78 -44 87 -5 10 -9 24 -9 31 0 7 -9 31 -21 52
-23 45 -79 198 -79 218 0 7 -8 28 -19 47 -10 19 -21 52 -25 74 -4 21 -12 50
-18 65 -16 37 -38 144 -45 221 -3 36 -10 68 -15 71 -6 4 -13 46 -17 93 -4 48
-12 90 -18 94 -6 4 -16 54 -22 112 -6 58 -19 155 -30 215 -10 61 -22 153 -26
205 -4 52 -12 101 -19 109 -7 9 -13 92 -17 230 -4 119 -7 217 -8 218 0 1 -11
11 -22 22 -20 19 -21 26 -14 88 11 88 10 131 -5 418 -14 260 -10 322 23 360
12 13 81 49 152 80 72 31 166 73 210 94 142 69 192 91 206 91 8 0 26 8 39 17
24 17 55 29 250 100 52 19 104 40 115 47 36 24 271 106 346 122 41 8 121 24
179 34 58 10 124 26 148 34 53 19 183 36 274 36 37 0 70 5 74 11 3 6 14 9 24
6 25 -6 187 19 203 31 21 18 119 42 168 42 26 0 49 5 51 10 2 6 28 12 58 14
124 8 206 19 219 30 8 7 84 13 190 17 97 3 177 7 177 8 17 16 2 81 -19 81 -5
0 -7 13 -4 30 4 16 2 32 -3 35 -6 3 -10 13 -10 21 0 11 17 14 83 14 54 0 104
7 145 20 35 11 92 20 126 20 37 0 87 8 122 20 32 12 95 25 139 31 44 5 103 15
130 23 28 8 115 19 195 25 80 7 174 18 210 26 36 8 88 15 117 15 34 0 64 7 87
21 24 14 64 23 133 29 54 5 107 11 118 15 15 4 32 -3 60 -25 58 -46 66 -47
210 -23 28 5 55 12 62 16 6 4 55 11 108 17 53 5 103 14 110 20 9 7 71 15 149
19 81 4 140 12 149 19 8 7 21 10 30 6 8 -3 28 1 44 9 15 8 51 17 80 20 29 3
62 12 75 20 30 19 107 30 185 28 44 -2 70 3 85 13 16 11 46 16 97 16 67 0 78
3 102 26 29 28 126 51 254 60 133 9 182 15 245 30 36 9 69 20 74 25 13 12 133
12 140 0 3 -5 53 -9 110 -9 58 0 109 -2 113 -5 15 -10 156 14 177 29 26 18 46
18 73 -1z m-2483 -261 c20 -8 11 -24 -15 -24 -19 0 -25 11 -12 23 8 8 8 8 27
1z m5453 -176 c-3 -8 -6 -5 -6 6 -1 11 2 17 5 13 3 -3 4 -12 1 -19z m-12261
-177 c-4 -31 -13 -78 -21 -105 -8 -27 -15 -78 -15 -112 0 -35 -6 -99 -14 -141
-8 -43 -24 -130 -36 -193 -11 -63 -27 -194 -35 -290 -7 -96 -19 -188 -25 -205
-7 -18 -11 -81 -9 -160 1 -71 -1 -177 -5 -235 -7 -101 -28 -573 -29 -635 -1
-95 12 -541 18 -600 3 -38 13 -86 22 -107 12 -28 14 -55 8 -120 -13 -166 -14
-224 -4 -298 5 -41 13 -148 18 -237 4 -89 12 -168 18 -175 6 -7 13 -42 17 -78
3 -36 15 -101 27 -145 11 -44 24 -111 30 -149 5 -38 13 -74 18 -80 5 -6 16
-56 25 -111 8 -55 22 -125 30 -155 8 -30 17 -77 21 -105 4 -27 13 -63 21 -80
7 -16 17 -57 23 -90 5 -33 24 -105 41 -160 18 -55 38 -122 46 -150 8 -27 21
-64 29 -82 8 -17 15 -37 15 -43 0 -7 19 -63 41 -124 23 -61 47 -133 55 -161 7
-27 29 -95 49 -150 20 -55 40 -113 45 -128 5 -16 13 -34 19 -40 5 -7 22 -43
37 -82 15 -38 35 -81 44 -95 10 -14 38 -65 63 -115 25 -49 78 -139 119 -200
100 -149 167 -246 184 -270 8 -11 28 -44 45 -74 17 -29 39 -55 49 -58 11 -3
21 -18 24 -39 4 -18 12 -39 19 -46 7 -7 24 -32 39 -54 15 -23 55 -66 89 -95
191 -164 236 -227 223 -310 -8 -49 -35 -80 -86 -98 -31 -12 -34 -11 -58 20
-24 32 -52 61 -168 172 -29 28 -68 74 -87 101 -76 110 -112 155 -147 185 -40
35 -109 137 -134 201 -9 22 -20 40 -25 40 -5 0 -17 17 -25 38 -22 50 -27 60
-56 113 -14 25 -29 61 -33 80 -8 41 -45 107 -73 133 -14 12 -23 37 -28 75 -3
31 -11 61 -16 68 -19 23 -77 123 -83 142 -3 11 -12 25 -20 31 -8 7 -15 29 -15
50 0 21 -6 43 -14 49 -8 7 -18 26 -21 42 -4 17 -18 41 -31 56 -13 14 -26 40
-30 59 -3 18 -12 38 -20 45 -17 14 -19 49 -2 49 6 0 2 10 -9 23 -11 12 -31 50
-43 84 -12 34 -28 64 -36 67 -7 3 -16 21 -20 41 -3 19 -10 38 -14 40 -14 9
-41 115 -35 136 9 27 -3 59 -22 59 -11 0 -14 6 -9 23 3 14 -2 35 -14 54 -10
18 -29 65 -40 105 -12 40 -25 80 -30 89 -12 23 -40 137 -40 164 0 13 -4 26 -9
30 -8 5 -39 100 -85 260 -22 78 -36 153 -36 198 0 23 -7 50 -15 61 -7 10 -17
44 -21 75 -3 31 -14 70 -24 86 -10 17 -20 61 -23 103 -4 46 -12 78 -21 88 -12
12 -16 38 -16 109 0 52 4 96 9 99 11 7 14 323 3 330 -5 3 -5 31 -1 62 5 34 3
80 -3 113 -6 33 -8 121 -5 214 5 136 9 162 26 191 26 41 26 54 1 86 -25 32
-25 36 0 43 32 8 27 71 -7 103 -27 25 -27 26 -29 175 -2 132 1 157 18 197 17
37 21 71 23 186 2 78 8 167 13 199 7 33 8 67 3 80 -6 14 -3 51 6 97 9 48 13
103 9 153 -6 80 12 196 36 240 6 12 13 42 14 67 5 120 20 218 39 246 19 29 35
112 39 209 2 28 10 67 19 87 9 21 17 47 17 58 0 11 14 47 30 80 17 33 30 72
30 87 1 15 7 39 15 53 8 14 14 48 15 76 0 49 14 79 33 67 5 -3 7 -29 3 -62z
m13923 -1165 c12 -13 24 -41 28 -62 3 -21 11 -46 18 -54 6 -8 25 -40 41 -70
29 -52 37 -72 79 -200 10 -30 26 -68 36 -85 9 -16 27 -61 40 -100 12 -38 27
-76 32 -82 5 -7 16 -42 23 -78 8 -36 23 -83 34 -105 11 -21 20 -46 20 -54 0
-8 6 -21 13 -28 8 -7 17 -35 20 -61 4 -27 13 -63 21 -80 9 -18 29 -88 46 -156
17 -69 38 -141 47 -160 20 -48 47 -212 46 -286 -1 -33 -5 -125 -10 -205 -8
-128 -7 -152 9 -204 10 -32 18 -75 18 -95 0 -20 5 -42 11 -48 11 -11 6 -290
-6 -405 -7 -64 5 -77 28 -31 l14 26 7 -37 c4 -21 6 -104 5 -184 -2 -119 1
-147 13 -156 15 -11 21 -82 33 -406 6 -144 21 -253 35 -245 15 9 21 114 22
383 0 150 4 275 9 278 5 3 9 2 10 -3 3 -30 12 -513 11 -578 -1 -44 2 -93 7
-110 7 -24 9 -26 10 -8 1 26 19 39 34 24 15 -15 -11 -181 -30 -181 -13 0 -17
-24 -13 -87 1 -31 -14 -44 -81 -66 -14 -5 -18 -26 -24 -114 -3 -59 -8 -114
-11 -122 -11 -35 -20 13 -30 167 -9 135 -15 177 -34 219 -28 65 -26 169 4 202
14 15 18 33 16 73 -2 29 -2 82 -1 117 1 44 -4 70 -14 81 -11 12 -17 64 -25
201 -6 101 -11 189 -11 194 0 6 5 44 12 85 7 41 13 93 13 115 1 36 -1 39 -24
40 l-25 0 -3 169 c-2 134 0 173 12 191 24 36 29 87 12 110 -12 16 -18 17 -24
7 -7 -10 -11 -10 -22 3 -10 12 -11 24 -1 54 6 21 11 51 11 66 0 22 -4 26 -19
22 -28 -7 -32 15 -15 72 21 74 5 240 -30 307 -14 27 -26 57 -26 66 0 22 -45
123 -58 132 -6 3 -18 29 -27 56 -9 28 -21 50 -26 50 -5 0 -9 10 -9 23 -1 12
-9 40 -20 62 -11 22 -19 54 -20 71 0 18 -7 45 -15 60 -8 16 -15 37 -15 46 0 9
-4 19 -9 22 -5 3 -15 30 -21 58 -7 29 -17 59 -23 66 -5 7 -13 29 -18 50 -4 20
-28 97 -53 171 -25 74 -46 144 -46 156 0 11 -7 30 -15 41 -8 10 -15 35 -15 54
0 20 -9 54 -21 75 -36 69 -40 94 -18 105 20 11 27 64 9 75 -13 8 -13 78 0 91
21 21 14 88 -13 148 -39 85 -34 111 12 62z m-570 -448 c11 -11 28 -44 37 -71
10 -30 23 -51 35 -54 10 -3 15 -11 12 -19 -4 -10 3 -14 21 -14 50 0 89 -66 69
-119 -5 -16 -15 -25 -26 -23 -10 2 -17 -4 -17 -13 0 -9 5 -13 10 -10 6 4 19 3
28 -1 9 -4 27 -6 39 -5 16 2 24 -4 29 -23 3 -14 4 -33 0 -41 -3 -8 -1 -15 4
-15 5 0 16 -12 24 -27 8 -16 25 -39 37 -53 38 -41 58 -76 68 -118 14 -64 -2
-69 -42 -14 -20 27 -44 55 -53 63 -23 19 -33 -3 -23 -54 5 -23 13 -66 19 -96
5 -29 14 -58 19 -65 6 -7 13 -32 17 -56 3 -25 26 -90 49 -145 24 -55 46 -122
50 -150 4 -27 14 -59 21 -70 8 -11 14 -34 14 -53 0 -34 8 -65 66 -240 19 -56
34 -118 34 -137 0 -18 6 -40 14 -47 26 -27 43 -73 49 -133 3 -33 13 -84 23
-114 16 -47 19 -51 27 -33 6 14 4 35 -7 68 -9 26 -16 71 -16 99 0 28 -3 55 -7
58 -4 4 -19 56 -34 115 -15 59 -35 132 -43 162 -9 30 -16 85 -16 123 0 47 -4
67 -13 67 -19 0 -41 40 -28 53 8 8 7 15 -3 26 -8 9 -18 28 -21 44 -6 21 -4 27
8 27 9 0 18 8 21 18 8 29 11 101 3 108 -4 4 -7 19 -7 32 0 28 -26 62 -47 62
-17 0 -17 36 0 42 6 3 29 3 50 0 32 -4 37 -8 38 -31 4 -92 13 -123 54 -181 19
-28 35 -58 35 -69 0 -33 32 -176 41 -186 5 -5 9 -24 9 -42 0 -33 38 -112 71
-149 11 -11 19 -29 19 -40 0 -10 7 -41 15 -68 8 -27 15 -77 15 -111 0 -48 6
-73 26 -111 24 -44 27 -59 25 -145 -1 -75 2 -99 14 -109 8 -7 15 -20 15 -30 0
-9 3 -20 8 -24 4 -4 12 -24 17 -44 7 -24 18 -38 30 -41 28 -5 35 -19 35 -77 0
-31 9 -71 22 -100 17 -38 22 -68 23 -136 0 -81 -2 -88 -27 -111 -14 -13 -37
-27 -51 -31 -16 -4 -43 -34 -82 -93 -32 -49 -70 -100 -83 -115 -15 -17 -28
-46 -33 -77 -9 -56 -29 -104 -44 -104 -19 -1 -55 86 -55 133 0 25 -7 55 -15
66 -8 10 -15 40 -15 65 0 26 -6 64 -14 85 -7 22 -17 67 -21 102 -4 34 -11 64
-15 67 -5 3 -12 41 -16 85 -3 44 -10 77 -14 75 -11 -7 -20 32 -20 85 0 25 -6
65 -14 90 -8 25 -24 90 -36 145 -12 55 -26 105 -31 112 -6 6 -14 40 -19 75 -5
34 -14 64 -20 66 -5 2 -10 13 -10 25 0 25 -26 109 -46 150 -8 16 -14 44 -14
62 0 19 -7 41 -16 50 -9 9 -20 45 -25 85 -8 63 -60 239 -79 265 -4 6 -10 26
-14 45 -3 19 -17 71 -31 115 -13 44 -31 108 -40 143 -8 34 -22 74 -32 89 -18
27 -78 219 -90 283 -3 19 -11 46 -18 60 -19 38 -62 179 -69 229 -4 24 -13 55
-20 70 -7 14 -16 46 -20 70 l-7 44 36 -6 c33 -5 36 -3 50 29 16 39 36 43 64
12z m-555 -161 c3 -12 1 -26 -4 -31 -7 -7 -10 -2 -10 12 0 13 -6 22 -15 22
-15 0 -20 12 -9 23 11 10 32 -4 38 -26z m974 -604 c-5 -25 -28 -28 -28 -4 0
12 6 21 16 21 9 0 14 -7 12 -17z m42 -41 c0 -13 -4 -21 -9 -17 -5 3 -9 19 -9
36 1 35 18 18 18 -19z m-16 -166 c27 -24 36 -79 15 -91 -15 -10 -19 -3 -26 41
-3 22 -13 47 -21 57 -23 26 3 21 32 -7z m56 -318 c0 -16 -3 -19 -11 -11 -6 6
-8 16 -5 22 11 17 16 13 16 -11z m1899 -98 c15 -22 15 -23 -6 -12 -11 6 -23
19 -27 28 -9 23 14 12 33 -16z m31 -220 c0 -17 -7 -20 -45 -20 -26 0 -45 5
-45 11 0 7 9 9 24 5 15 -4 28 0 36 9 17 21 30 19 30 -5z m51 -87 c19 -18 27
-34 23 -45 -4 -12 5 -27 24 -43 17 -14 29 -33 27 -43 -2 -9 -4 -23 -4 -30 -1
-7 -6 -10 -11 -7 -6 4 -8 11 -4 16 3 6 -3 17 -15 25 -12 8 -21 21 -21 28 0 8
-7 16 -15 20 -9 3 -15 18 -15 40 l0 34 -67 8 c-65 8 -66 9 -28 15 69 11 76 10
106 -18z m-14651 3 c0 -2 -11 -6 -25 -8 -14 -3 -25 -1 -25 3 0 5 11 9 25 9 14
0 25 -2 25 -4z m-1540 -106 c0 -16 -4 -30 -9 -30 -10 0 -21 47 -13 55 13 13
22 3 22 -25z m1410 -190 c0 -5 -4 -10 -10 -10 -5 0 -10 5 -10 10 0 6 5 10 10
10 6 0 10 -4 10 -10z m13210 -145 c-12 -15 -14 -15 -23 1 -6 11 -5 19 4 25 21
12 35 -7 19 -26z m-16111 -26 c16 -46 14 -196 -2 -206 -7 -4 -17 -26 -22 -48
-8 -31 -15 -41 -33 -43 -23 -4 -24 -3 -18 75 16 220 45 306 75 222z m14818
-26 c-8 -70 -27 -78 -27 -12 0 31 3 59 6 62 16 15 26 -9 21 -50z m3003 17 c0
-5 -5 -10 -11 -10 -5 0 -7 5 -4 10 3 6 8 10 11 10 2 0 4 -4 4 -10z m-2360
-157 c0 -34 6 -50 26 -70 25 -25 27 -33 31 -142 3 -64 8 -127 13 -141 5 -14
11 -38 14 -55 2 -16 12 -50 21 -75 23 -60 45 -140 45 -162 0 -18 58 -78 76
-78 6 0 14 18 18 40 4 27 10 38 20 34 24 -9 38 -57 46 -154 4 -52 11 -108 15
-123 8 -29 -7 -49 -73 -96 -36 -25 -52 -27 -52 -5 0 11 -8 14 -27 12 -22 -2
-27 -8 -25 -23 16 -89 15 -94 -18 -127 -21 -21 -34 -45 -38 -70 -2 -21 -9 -38
-14 -38 -5 0 -18 -16 -29 -35 -13 -22 -29 -35 -41 -35 -18 0 -20 -4 -14 -42 6
-41 5 -44 -39 -83 -37 -32 -45 -44 -40 -63 9 -37 -30 -108 -66 -121 -16 -5
-29 -17 -29 -26 0 -21 -63 -127 -105 -176 -16 -20 -42 -54 -57 -76 -27 -39
-53 -57 -98 -67 -14 -3 -57 -37 -97 -76 -91 -88 -107 -90 -162 -17 -22 29 -47
69 -56 90 -20 49 -20 182 2 261 14 52 16 116 15 454 0 287 -4 397 -12 407 -7
8 -16 67 -21 132 -5 73 -13 119 -21 124 -16 10 -18 200 -2 220 6 8 14 46 17
85 5 68 18 108 58 186 10 20 19 57 19 81 0 24 3 47 7 50 9 9 35 -52 27 -64 -3
-5 2 -19 10 -31 9 -12 16 -36 16 -53 0 -21 9 -40 25 -55 24 -23 26 -23 39 -5
11 16 17 17 29 7 13 -11 14 -5 11 47 -4 55 -3 59 20 65 35 9 49 0 70 -39 12
-22 27 -35 39 -35 21 0 21 0 1 16 -18 14 -18 15 6 9 32 -9 50 -32 50 -65 0
-28 35 -58 44 -37 3 9 9 7 18 -5 13 -15 15 -15 26 3 7 10 18 19 26 19 7 0 16
10 19 22 5 18 8 19 22 8 13 -11 15 -10 9 4 -4 10 0 18 12 22 11 3 26 9 35 14
10 5 20 5 26 -1 6 -6 24 -5 49 3 34 11 39 17 42 47 3 24 -2 37 -17 47 -17 13
-20 22 -15 62 9 74 11 78 34 57 14 -13 20 -31 20 -62z m2436 15 c-4 -27 -15
-49 -29 -60 -28 -21 -33 -16 -13 14 9 12 16 34 16 49 0 27 7 39 23 39 6 0 7
-17 3 -42z m72 -7 c26 -14 29 -41 4 -41 -25 0 -42 20 -42 50 0 14 4 20 8 14 4
-6 17 -16 30 -23z m-1643 -71 c-4 -11 -10 -20 -15 -20 -11 0 -19 36 -13 60 l6
21 14 -21 c8 -11 11 -29 8 -40z m-1440 -26 c3 -37 -10 -68 -24 -60 -3 2 -5 28
-4 58 2 67 1 64 14 51 6 -6 12 -28 14 -49z m3063 -9 c4 -16 2 -16 -22 0 -14
10 -26 24 -26 32 0 14 3 14 23 1 12 -9 24 -23 25 -33z m-62 -33 c6 -4 13 -15
17 -25 5 -15 10 -16 27 -7 22 12 44 5 35 -11 -14 -21 -97 6 -109 36 -6 16 11
20 30 7z m177 -17 c-4 -15 -36 -12 -41 3 -3 9 3 13 19 10 13 -1 23 -7 22 -13z
m-5 -55 c6 0 12 -4 12 -10 0 -5 -6 -7 -14 -4 -11 4 -13 0 -9 -16 6 -22 6 -22
-23 -4 -16 10 -31 19 -33 20 -12 8 15 25 33 20 11 -3 27 -6 34 -6z m95 -285
c-2 -30 -38 -74 -50 -62 -4 4 1 21 10 36 9 16 17 37 17 46 0 9 6 15 13 12 6
-2 11 -17 10 -32z m-1919 -117 c13 -19 16 -61 16 -263 0 -132 -5 -260 -10
-283 -7 -29 -7 -56 0 -80 7 -27 6 -50 -4 -87 -8 -27 -20 -81 -26 -120 -7 -38
-23 -111 -36 -162 -13 -54 -23 -119 -22 -155 1 -78 -8 -108 -32 -108 -28 0
-100 94 -155 202 -26 51 -55 102 -65 113 -10 11 -36 55 -59 97 -36 67 -41 85
-41 141 0 45 5 68 15 77 10 8 15 30 15 64 0 38 9 69 34 122 19 39 38 83 42 98
3 15 15 33 26 39 10 7 37 35 58 64 27 35 49 53 70 58 48 10 97 59 104 103 7
40 36 102 48 102 4 0 14 -10 22 -22z m1886 2 c0 -5 -4 -10 -10 -10 -5 0 -10 5
-10 10 0 6 5 10 10 10 6 0 10 -4 10 -10z m66 -67 c-6 -15 -36 -18 -36 -3 0 5
5 21 12 35 l12 27 8 -23 c5 -12 6 -29 4 -36z m-18978 -250 c-2 -22 -9 -29 -32
-31 -52 -6 -56 22 -6 45 37 17 42 16 38 -14z m-37 -119 c-15 -29 -29 -44 -42
-44 -10 0 -19 6 -19 14 0 28 20 66 34 66 7 0 20 7 27 16 23 28 23 -5 0 -52z
m19 -54 c0 -5 -7 -10 -15 -10 -8 0 -15 5 -15 10 0 6 7 10 15 10 8 0 15 -4 15
-10z m4216 -47 c-10 -10 -19 5 -10 18 6 11 8 11 12 0 2 -7 1 -15 -2 -18z
m-4266 -3 c0 -5 -10 -15 -22 -21 -12 -7 -30 -21 -40 -33 -12 -15 -17 -17 -18
-7 0 8 12 28 27 43 27 28 53 37 53 18z m4240 -49 c0 -15 -30 -41 -46 -41 -18
0 -18 6 4 29 18 21 42 27 42 12z m-4266 -39 c-6 -4 -16 -17 -23 -30 -7 -12
-16 -20 -22 -17 -16 11 -10 32 14 43 25 12 48 15 31 4z m19366 -28 c0 -8 -4
-14 -10 -14 -5 0 -10 9 -10 21 0 11 5 17 10 14 6 -3 10 -13 10 -21z m-105 6
c3 -5 1 -10 -4 -10 -6 0 -11 5 -11 10 0 6 2 10 4 10 3 0 8 -4 11 -10z m-14870
-11 c-4 -5 -18 -9 -33 -9 -23 -1 -25 -3 -12 -13 8 -7 23 -25 33 -40 10 -15 33
-35 52 -44 29 -14 34 -22 37 -57 2 -32 7 -42 23 -44 32 -4 48 -54 43 -132 -5
-72 2 -90 35 -90 14 0 17 -5 12 -21 -4 -12 -3 -19 2 -16 15 10 29 -6 62 -70
18 -34 39 -67 47 -74 25 -20 43 -64 37 -87 -3 -12 -2 -47 2 -77 6 -50 8 -55
28 -50 12 3 28 1 36 -4 11 -7 11 -13 -3 -32 -9 -13 -16 -19 -16 -14 0 12 -42
31 -90 40 -19 4 -45 16 -58 26 -13 10 -36 20 -52 24 -41 9 -46 34 -13 61 18
15 23 23 13 23 -21 1 -35 -10 -43 -33 -6 -15 -14 -17 -45 -12 -105 18 -162 19
-180 3 -10 -9 -32 -22 -49 -28 -28 -9 -37 -7 -86 24 -37 24 -68 56 -100 103
-26 38 -71 98 -101 134 -30 36 -55 74 -55 86 -1 30 55 104 78 104 13 0 23 11
31 35 6 19 19 37 29 40 10 3 28 16 40 29 13 14 29 22 37 19 8 -3 14 0 14 6 0
6 -4 11 -10 11 -5 0 -10 10 -10 23 0 38 12 67 26 67 8 0 14 7 14 16 0 10 5 14
15 10 9 -3 18 1 21 9 4 8 13 15 20 15 8 0 17 7 21 16 3 9 14 19 25 23 29 11
129 11 123 0z m-4315 -59 c0 -5 -7 -10 -16 -10 -8 0 -12 5 -9 10 3 6 10 10 16
10 5 0 9 -4 9 -10z m-48 -77 c10 -9 18 -22 18 -30 0 -19 -27 -16 -34 5 -3 9
-9 23 -12 30 -8 17 6 15 28 -5z m16 -85 c-2 -13 -7 -23 -13 -23 -5 0 -11 10
-13 23 -2 15 2 22 13 22 11 0 15 -7 13 -22z m4769 -295 c-3 -10 -5 -2 -5 17 0
19 2 27 5 18 2 -10 2 -26 0 -35z m8298 -133 c3 -5 1 -10 -4 -10 -6 0 -11 5
-11 10 0 6 2 10 4 10 3 0 8 -4 11 -10z m3142 -88 c7 -7 13 -22 13 -33 0 -14 7
-19 25 -19 31 0 39 -18 25 -55 -9 -23 -8 -35 6 -61 17 -31 17 -35 -1 -88 -18
-53 -21 -56 -52 -56 -37 0 -38 2 -21 30 7 10 9 22 5 26 -14 14 -70 7 -82 -9
-18 -25 -33 -21 -51 15 -32 62 2 193 80 303 l20 29 10 -34 c6 -19 16 -41 23
-48z m-10707 -1002 c0 -5 -5 -10 -11 -10 -5 0 -7 5 -4 10 3 6 8 10 11 10 2 0
4 -4 4 -10z m7194 -311 c19 -28 12 -42 -30 -63 -34 -16 -35 -15 -30 1 2 10 7
33 11 51 8 37 27 41 49 11z m-13224 -150 c0 -18 -2 -19 -15 -9 -15 12 -12 30
6 30 5 0 9 -10 9 -21z m14054 -357 c-2 -48 -15 -83 -67 -193 -36 -74 -80 -168
-100 -209 -19 -41 -49 -89 -66 -106 -17 -17 -39 -52 -50 -77 -11 -26 -25 -47
-31 -47 -24 0 -21 35 9 92 18 33 37 85 42 116 6 30 21 71 34 91 12 21 28 64
35 96 7 32 18 65 26 72 7 8 16 30 20 51 11 58 33 102 50 102 24 0 73 32 80 52
11 37 21 16 18 -40z m-5740 -128 c10 -27 7 -244 -4 -244 -5 0 -10 3 -11 8 0 4
-2 28 -4 54 -2 25 -11 74 -20 108 -9 34 -14 69 -11 76 7 19 42 18 50 -2z
m9131 -60 c11 -11 25 -29 31 -39 6 -10 19 -23 29 -29 45 -27 214 -223 249
-290 6 -13 27 -39 47 -57 19 -19 53 -59 76 -89 23 -30 58 -71 77 -89 20 -19
36 -40 36 -47 0 -6 27 -36 61 -67 33 -30 57 -57 52 -60 -19 -11 -76 8 -103 34
-16 16 -32 29 -36 29 -4 0 -15 7 -24 15 -10 9 -41 18 -71 21 -30 3 -72 14 -94
24 -22 10 -57 25 -77 34 -21 9 -38 20 -38 26 0 5 -9 10 -20 10 -23 0 -108 44
-182 96 -76 52 -212 188 -263 265 -50 73 -54 89 -25 89 11 0 20 -4 20 -10 0
-5 12 -12 28 -16 48 -10 80 -25 86 -40 8 -21 36 -17 36 5 0 11 5 23 10 26 23
14 47 91 42 138 -4 42 -2 47 15 44 10 -1 27 -12 38 -23z m-115 -125 c0 -5 -4
-9 -10 -9 -5 0 -10 7 -10 16 0 8 5 12 10 9 6 -3 10 -10 10 -16z m-8662 -191
c106 -213 142 -276 218 -378 58 -78 73 -96 103 -125 6 -5 29 -34 51 -63 23
-29 60 -66 83 -82 23 -16 49 -36 57 -43 8 -8 35 -25 60 -37 45 -22 120 -90
120 -109 0 -5 10 -11 23 -13 15 -2 23 -11 25 -30 2 -15 14 -34 30 -44 15 -10
39 -29 53 -43 63 -63 121 -111 133 -111 8 0 20 -10 29 -22 19 -29 95 -108 104
-108 4 0 28 -21 54 -47 26 -27 68 -67 93 -90 26 -24 52 -55 58 -70 16 -37 45
-64 91 -85 28 -13 39 -26 44 -49 4 -21 14 -34 32 -40 29 -11 71 -48 71 -61 0
-19 43 -66 56 -61 8 3 14 0 14 -6 0 -6 -7 -11 -16 -11 -35 0 1 -20 56 -31 33
-6 60 -15 60 -20 0 -4 12 -14 28 -21 18 -9 28 -22 30 -41 3 -26 1 -27 -42 -27
-25 0 -47 -4 -50 -9 -10 -16 -57 -19 -99 -6 -23 7 -112 15 -197 19 -93 4 -171
12 -195 21 -22 8 -65 14 -95 15 -30 0 -91 9 -135 19 -44 10 -114 24 -155 30
-41 7 -93 20 -115 30 -95 45 -182 71 -236 71 -47 0 -62 5 -93 29 -22 18 -67
37 -118 51 -46 12 -108 36 -139 54 -31 18 -80 39 -110 46 -30 7 -67 22 -83 33
-16 11 -45 21 -64 22 -32 1 -38 6 -54 40 -20 46 -24 162 -7 235 6 25 13 61 16
80 3 19 11 40 17 45 7 6 16 31 20 58 4 26 11 47 16 47 11 0 23 56 22 100 -1
19 5 57 13 84 11 36 15 101 15 242 0 131 4 195 11 200 13 8 3 137 -12 166 -5
10 -14 41 -19 70 -6 28 -17 59 -25 68 -17 19 -20 66 -5 75 5 3 18 26 29 50 11
25 26 45 34 45 8 0 48 -68 95 -162z m4172 47 c0 -14 12 -20 34 -16 15 3 36
-21 36 -40 0 -11 -7 -19 -15 -19 -17 0 -20 -16 -5 -25 6 -3 13 1 16 9 3 9 12
16 20 16 19 0 18 -50 -1 -86 -8 -16 -15 -44 -15 -62 0 -18 -6 -47 -13 -65 -8
-18 -12 -37 -10 -43 4 -12 44 -7 53 7 3 4 14 1 25 -7 14 -10 20 -26 20 -54 0
-34 3 -39 25 -42 29 -3 26 8 55 -283 18 -191 16 -204 -45 -235 -19 -10 -46
-30 -60 -45 -14 -15 -49 -38 -78 -51 -29 -13 -74 -37 -98 -54 -25 -16 -47 -30
-50 -30 -3 0 -29 -20 -57 -45 -28 -24 -63 -47 -78 -50 -15 -3 -53 -30 -85 -58
-119 -106 -215 -168 -290 -187 -23 -6 -59 -27 -85 -51 -86 -79 -126 -107 -170
-119 -24 -7 -75 -30 -114 -53 -38 -22 -97 -52 -130 -66 -33 -15 -76 -38 -95
-53 -44 -34 -263 -83 -360 -81 -113 2 -249 22 -277 41 -15 9 -24 12 -20 5 5
-8 -2 -14 -20 -19 -15 -3 -34 -7 -40 -10 -25 -7 -43 8 -49 42 -10 52 2 84 30
84 33 0 57 10 50 21 -3 5 -21 9 -40 9 -23 0 -34 5 -34 15 0 7 -6 18 -14 22 -8
4 -16 19 -18 32 -2 20 2 25 27 28 17 2 32 9 34 15 2 6 6 5 11 -3 7 -10 19 -9
62 5 29 10 82 20 118 23 50 5 70 11 89 29 16 17 35 24 61 24 21 0 43 7 50 15
7 8 21 15 31 15 10 0 35 20 55 44 20 24 48 50 63 57 14 8 39 29 56 47 16 17
38 32 48 32 11 0 21 9 24 20 3 11 11 20 18 20 19 0 39 29 40 58 0 19 7 28 30
35 40 13 42 15 19 32 -19 14 -18 15 4 21 13 4 22 14 22 25 0 10 9 24 20 31 11
7 20 17 20 23 0 11 32 32 115 77 34 19 65 28 96 28 39 0 50 4 63 25 9 14 25
25 36 25 11 0 29 9 40 20 11 11 28 20 38 20 17 0 72 60 72 79 0 6 9 11 20 11
11 0 32 14 47 32 16 17 41 45 56 62 16 17 36 43 45 58 9 16 20 28 25 28 4 0
18 22 31 49 36 78 72 120 97 114 19 -5 20 -4 9 14 -10 16 -10 25 1 46 23 44
110 167 118 167 4 0 34 24 66 54 38 35 59 62 60 77 2 38 26 79 47 79 10 0 18
-7 18 -15z m-4493 -232 c-2 -16 -4 -5 -4 22 0 28 2 40 4 28 2 -13 2 -35 0 -50z
m-1770 35 c-3 -8 -6 -5 -6 6 -1 11 2 17 5 13 3 -3 4 -12 1 -19z m-6512 -117
c3 -5 1 -12 -5 -16 -5 -3 -10 1 -10 9 0 18 6 21 15 7z m6775 -106 c0 -6 -11
-12 -25 -13 -16 -1 -25 3 -25 12 0 9 10 13 25 12 14 0 25 -6 25 -11z m8430
-108 c0 -32 -5 -45 -21 -55 -12 -7 -23 -11 -26 -9 -4 4 9 66 22 105 9 26 25 0
25 -41z m-15503 -53 c-3 -3 -12 -4 -19 -1 -8 3 -5 6 6 6 11 1 17 -2 13 -5z
m8583 -138 c-1 -76 -18 -55 -27 32 -6 52 -5 56 10 43 13 -10 17 -29 17 -75z
m-4796 -7 c14 -7 26 -17 26 -24 0 -6 -37 -31 -82 -54 -46 -24 -105 -58 -133
-74 -73 -46 -215 -174 -255 -231 -35 -50 -177 -196 -191 -196 -12 0 -21 58
-14 93 4 17 15 46 25 62 84 144 131 209 198 274 l77 74 80 6 c88 7 112 18 138
63 16 29 21 30 61 25 24 -4 55 -12 70 -18z m4636 -544 c0 -8 -4 -15 -10 -15
-5 0 -10 7 -10 15 0 8 5 15 10 15 6 0 10 -7 10 -15z m10486 -13 c1 -12 -4 -22
-11 -22 -14 0 -27 35 -17 45 11 11 27 -2 28 -23z m-18572 -89 c-3 -10 -8 -25
-10 -33 -5 -13 -6 -13 -14 0 -16 26 -11 50 10 50 14 0 18 -5 14 -17z m716 -76
c3 -25 8 -48 10 -50 3 -2 17 -10 31 -19 32 -20 41 -50 23 -77 -13 -18 -70 -39
-80 -28 -7 7 -22 200 -16 215 10 26 27 4 32 -41z m17875 13 c3 -5 1 -10 -4
-10 -6 0 -11 5 -11 10 0 6 2 10 4 10 3 0 8 -4 11 -10z m-18945 -90 c0 -12 -28
-25 -36 -17 -9 9 6 27 22 27 8 0 14 -5 14 -10z m260 -600 c-7 -14 -9 -40 -5
-71 6 -42 5 -48 -9 -43 -9 3 -16 13 -16 21 0 8 -7 27 -16 43 -17 27 -16 28 17
58 36 32 48 28 29 -8z m19041 -108 c13 -10 35 -23 49 -29 37 -16 199 -138 216
-162 15 -20 14 -21 -22 -21 -61 0 -112 21 -160 65 -25 23 -56 47 -69 53 -15 7
-25 20 -25 32 0 12 -9 24 -24 29 -27 11 -41 37 -23 45 22 9 34 6 58 -12z"/>
<path d="M13420 19225 c0 -10 10 -15 26 -15 22 0 25 2 14 15 -7 8 -19 15 -26
15 -8 0 -14 -7 -14 -15z"/>
<path d="M13940 18990 c0 -5 5 -10 10 -10 6 0 10 5 10 10 0 6 -4 10 -10 10 -5
0 -10 -4 -10 -10z"/>
<path d="M12148 16209 c-22 -12 -23 -47 -4 -75 8 -11 17 -37 21 -57 4 -21 20
-56 36 -80 21 -30 29 -54 29 -86 0 -25 6 -52 14 -60 7 -9 18 -29 25 -46 10
-27 11 -25 6 20 -3 28 -8 82 -12 120 -3 39 -10 76 -16 83 -5 7 -11 39 -11 72
-3 86 -43 136 -88 109z"/>
<path d="M7690 14053 c0 -5 5 -14 12 -21 9 -9 8 -16 -4 -29 -9 -12 -15 -41
-16 -84 -1 -36 -8 -82 -17 -103 -10 -24 -18 -84 -22 -169 -3 -73 -12 -150 -19
-172 -23 -68 -29 -206 -11 -262 9 -28 14 -69 11 -98 -5 -59 12 -204 33 -295 9
-36 19 -101 23 -145 4 -54 15 -99 33 -138 15 -32 27 -63 27 -70 1 -7 9 -30 20
-52 11 -22 19 -47 20 -56 0 -9 9 -45 19 -80 10 -35 22 -80 25 -99 3 -20 24
-60 46 -89 35 -46 40 -60 40 -106 0 -30 5 -66 11 -82 6 -15 22 -71 35 -123 46
-175 104 -176 104 -2 0 59 5 85 20 110 23 38 28 158 8 241 -9 40 -9 59 2 91 7
22 16 40 20 40 22 0 26 54 14 200 -13 148 -18 188 -49 345 -8 39 -19 105 -25
148 -5 43 -16 88 -24 100 -8 12 -17 42 -21 67 -4 25 -15 63 -26 85 -10 23 -23
64 -29 92 -5 29 -14 60 -19 70 -18 32 -60 148 -67 183 -4 19 -13 44 -20 55
-19 31 -74 304 -74 366 0 20 -3 39 -7 43 -4 4 -8 15 -8 24 0 12 -10 18 -32 20
-18 2 -33 -1 -33 -5z"/>
<path d="M7317 13103 c-8 -62 7 -259 23 -298 7 -16 20 -103 30 -193 10 -90 20
-165 22 -168 3 -2 18 0 33 6 l28 11 -8 82 c-4 45 -7 91 -7 102 1 22 -27 194
-52 320 -22 106 -45 185 -55 185 -5 0 -11 -21 -14 -47z"/>
<path d="M7518 11907 c-5 -27 0 -47 13 -47 5 0 9 16 9 35 0 39 -15 48 -22 12z"/>
<path d="M7531 11823 c-1 -12 4 -25 9 -28 12 -7 12 2 0 30 -8 19 -9 19 -9 -2z"/>
<path d="M7615 11528 c7 -18 12 -53 10 -78 -1 -25 0 -55 2 -68 l5 -22 19 21
c23 26 26 101 5 118 -8 7 -17 23 -20 36 -4 14 -13 25 -21 25 -12 0 -12 -5 0
-32z"/>
<path d="M10580 11460 c-11 -7 2 -10 43 -10 31 0 57 4 57 10 0 13 -80 13 -100
0z"/>
<path d="M7650 11288 c0 -16 5 -28 10 -28 13 0 13 20 0 40 -8 12 -10 9 -10
-12z"/>
<path d="M16332 6970 c-5 -14 -7 -29 -4 -34 7 -12 24 33 18 48 -2 6 -8 0 -14
-14z"/>
<path d="M16230 6839 c0 -5 5 -7 10 -4 6 3 10 8 10 11 0 2 -4 4 -10 4 -5 0
-10 -5 -10 -11z"/>
<path d="M12974 11491 c-38 -17 -36 -38 4 -46 20 -3 53 -17 72 -30 19 -12 71
-31 115 -40 44 -9 112 -31 150 -47 78 -34 243 -139 320 -203 28 -23 81 -66
120 -95 38 -29 74 -58 80 -65 5 -7 18 -15 28 -18 22 -8 35 19 19 42 -7 9 -26
42 -42 74 -22 42 -44 66 -77 87 -26 17 -52 30 -58 30 -5 0 -43 23 -84 50 -41
28 -77 50 -82 50 -4 0 -27 13 -51 29 -24 16 -114 64 -201 107 -144 71 -165 79
-225 81 -37 2 -76 -1 -88 -6z"/>
<path d="M12986 11301 c-7 -11 86 -23 110 -14 17 6 16 8 -6 14 -37 10 -98 10
-104 0z"/>
<path d="M12827 11239 c-9 -6 -44 -14 -77 -20 -87 -14 -363 -143 -455 -213
-16 -13 -48 -32 -70 -44 -22 -11 -55 -41 -74 -66 -19 -25 -38 -46 -42 -46 -4
0 -21 -21 -37 -47 -17 -27 -51 -77 -76 -113 -25 -36 -46 -75 -46 -87 0 -33
-21 -72 -41 -78 -10 -3 -28 -23 -41 -43 -12 -20 -39 -59 -60 -85 -21 -27 -38
-54 -38 -61 0 -7 -7 -21 -15 -31 -47 -61 -65 -98 -64 -133 0 -20 -3 -82 -7
-137 -5 -87 -4 -103 10 -114 33 -27 64 3 146 144 13 22 51 74 84 117 34 42 76
103 95 135 40 67 100 141 187 230 53 54 67 63 97 63 29 0 47 9 87 45 57 51 90
59 90 21 0 -13 -7 -30 -16 -37 -17 -14 -80 -105 -102 -148 -8 -14 -30 -49 -49
-78 -24 -37 -37 -69 -43 -113 -5 -34 -13 -67 -18 -73 -6 -7 -13 -49 -17 -94
-6 -63 -3 -100 10 -160 10 -43 22 -82 26 -87 6 -6 20 1 36 16 16 15 44 29 65
33 l36 7 1 86 c1 136 43 267 87 267 17 0 19 -6 16 -56 -2 -40 1 -59 12 -68 14
-12 13 -17 -3 -49 -10 -21 -21 -68 -23 -109 -5 -66 -4 -73 13 -73 11 0 19 7
19 15 0 19 5 19 56 -5 37 -18 42 -25 47 -62 3 -22 1 -51 -4 -64 -7 -21 -15
-24 -61 -24 -43 0 -56 -4 -73 -25 -12 -15 -39 -29 -70 -36 -58 -13 -95 -29
-95 -40 0 -4 22 -40 49 -81 47 -69 126 -152 200 -208 18 -14 45 -34 60 -46 50
-39 99 -62 158 -74 32 -7 61 -17 65 -24 5 -7 70 -12 199 -14 l192 -3 24 25
c13 14 27 26 32 26 4 0 49 39 100 88 51 48 117 109 147 137 30 27 54 55 54 62
0 7 4 13 9 13 10 0 81 138 81 158 0 6 9 29 20 49 11 21 20 53 20 71 0 18 7 46
14 61 30 58 57 185 56 264 l-1 78 43 19 c24 11 51 20 61 20 10 0 45 -28 78
-62 74 -79 86 -115 69 -212 -7 -39 -13 -85 -14 -101 -1 -32 -38 -100 -61 -112
-18 -10 -28 -54 -16 -72 8 -12 14 -11 37 5 42 30 47 32 74 38 33 7 211 161
277 239 13 15 32 27 44 27 32 0 118 40 124 59 7 24 -11 125 -31 163 -32 63
-104 147 -154 179 -28 18 -50 37 -50 42 0 25 -193 204 -295 273 -60 42 -128
89 -150 105 -75 53 -294 171 -354 189 -33 10 -100 41 -149 69 -90 51 -155 71
-238 71 -24 0 -69 7 -101 15 -66 17 -150 19 -176 4z m647 -563 c0 -9 -1 -36
-2 -60 -3 -58 -37 -96 -87 -96 -29 0 -43 8 -75 43 -41 44 -49 72 -27 99 22 28
50 36 121 33 58 -2 71 -6 70 -19z m-680 -578 c8 -18 17 -45 20 -61 5 -23 2
-29 -19 -37 -28 -10 -105 -3 -105 10 0 41 17 74 49 96 19 13 37 24 38 24 1 0
9 -15 17 -32z m740 -204 c10 -26 7 -63 -11 -116 -13 -39 -14 -55 -5 -69 7 -10
12 -28 12 -39 0 -33 -29 -92 -53 -109 -12 -8 -53 -48 -91 -88 -100 -106 -133
-123 -247 -124 -60 -1 -95 3 -97 10 -2 6 -27 11 -55 11 -30 0 -71 9 -97 21
-24 11 -78 24 -119 30 -68 8 -79 13 -116 47 -22 22 -54 44 -71 51 -47 19 -82
60 -93 113 -15 64 -1 92 53 108 22 7 56 26 75 42 20 17 40 27 50 24 21 -7 95
-27 143 -38 20 -5 39 -16 42 -26 4 -9 22 -34 42 -54 l35 -38 102 0 c101 0 102
0 146 35 36 29 52 35 86 33 34 -1 54 7 117 48 62 40 78 56 87 87 7 20 18 37
26 37 8 0 15 5 15 10 0 16 17 12 24 -6z m-718 -56 c-7 -37 -5 -34 -32 -42 -11
-3 -28 0 -38 7 -14 10 -15 18 -7 40 9 23 16 27 47 27 36 0 36 -1 30 -32z"/>
<path d="M12148 11049 c-47 -12 -101 -50 -89 -62 12 -12 54 4 96 37 34 28 32
36 -7 25z"/>
<path d="M14037 10939 c-39 -23 0 -110 55 -124 19 -5 27 -1 36 20 13 28 11 37
-22 73 -30 33 -49 42 -69 31z"/>
<path d="M6775 10461 c-182 -64 -416 -211 -480 -302 -17 -23 -37 -47 -45 -55
-161 -148 -260 -261 -260 -295 0 -9 -9 -24 -20 -34 -11 -10 -17 -22 -14 -26
11 -18 40 -8 57 20 9 16 32 48 51 70 19 22 42 61 52 86 9 25 23 45 30 45 7 0
17 6 21 13 8 12 76 60 173 122 89 57 165 113 185 135 26 28 225 146 333 196
54 24 78 41 70 46 -24 14 -72 8 -153 -21z"/>
<path d="M7146 10433 c-66 -2 -126 -9 -133 -15 -9 -7 -17 -7 -27 1 -10 9 -17
6 -29 -12 -12 -18 -22 -23 -44 -20 -20 3 -34 -2 -47 -16 -11 -12 -26 -21 -34
-21 -30 0 -131 -87 -317 -274 -182 -183 -374 -400 -388 -439 -4 -11 -16 -21
-26 -24 -11 -3 -40 -33 -66 -68 -27 -37 -60 -70 -81 -80 -22 -10 -48 -37 -69
-68 -18 -29 -46 -68 -62 -88 -16 -20 -37 -55 -47 -78 -17 -36 -18 -46 -6 -81
7 -22 17 -40 21 -40 13 0 6 -82 -8 -87 -15 -6 -17 -39 -3 -48 6 -3 10 -15 10
-26 0 -14 7 -19 24 -19 14 0 28 5 31 10 10 16 22 12 57 -18 18 -16 49 -32 68
-36 19 -3 99 -38 178 -78 78 -39 146 -67 150 -64 4 4 7 33 7 64 0 50 -4 61
-32 92 -40 42 -50 85 -30 132 8 19 18 59 22 89 4 30 15 72 25 94 10 22 21 49
24 61 4 12 24 41 46 64 22 24 40 50 41 59 1 29 54 126 70 129 13 2 15 -3 11
-25 -5 -27 -5 -27 19 -12 13 9 38 34 54 57 36 49 61 63 51 30 -15 -53 -23
-213 -17 -346 5 -122 9 -145 24 -153 11 -7 17 -22 17 -48 0 -24 9 -49 24 -70
14 -18 30 -55 36 -82 l12 -49 34 37 c18 21 41 46 50 55 16 17 16 19 1 36 -33
36 -11 92 37 92 21 0 26 -5 26 -23 0 -25 40 -86 66 -100 16 -9 74 9 74 23 0
11 94 70 111 70 8 0 22 -12 31 -28 10 -15 23 -34 30 -43 17 -24 -14 -69 -47
-69 -14 0 -25 -4 -25 -8 0 -16 74 -31 118 -25 32 4 42 2 43 -8 7 -76 17 -99
45 -109 13 -5 24 -17 24 -25 0 -14 9 -15 63 -9 34 4 63 8 65 9 2 2 -1 19 -6
38 -6 20 -7 38 -4 41 3 3 28 6 57 6 30 0 59 6 70 15 11 8 37 28 59 45 21 16
42 27 47 24 14 -8 42 12 45 32 2 11 8 58 13 106 7 69 15 94 35 121 14 19 26
39 26 44 0 6 20 16 45 23 40 11 48 11 65 -5 10 -9 22 -30 25 -46 4 -16 13 -33
22 -37 13 -8 15 -29 11 -128 -4 -130 -21 -187 -89 -300 -74 -123 -192 -224
-260 -224 -21 0 -44 -7 -53 -15 -17 -17 -145 -21 -174 -5 -16 9 -177 39 -232
43 -53 4 -30 -57 34 -90 39 -20 237 -33 355 -23 88 8 103 13 208 65 62 32 113
61 113 65 0 4 20 30 44 56 48 54 90 130 101 184 3 19 15 58 25 85 47 124 62
191 58 261 -5 75 -41 232 -64 277 -8 16 -14 35 -14 43 0 22 -78 184 -107 222
-32 43 -44 86 -36 135 l6 39 43 -6 c25 -3 79 -26 124 -51 43 -25 82 -45 85
-45 9 0 195 -189 238 -243 65 -79 187 -147 187 -103 0 19 -68 138 -155 271
-40 61 -93 143 -119 183 -52 83 -73 103 -167 167 -36 24 -71 56 -77 70 -7 14
-19 28 -28 32 -10 3 -53 41 -98 84 -109 105 -207 166 -356 221 -30 11 -73 27
-95 35 -45 17 -136 22 -309 16z m-312 -595 c-72 -85 -144 -136 -144 -103 0 36
49 93 92 108 64 23 75 21 52 -5z m876 -32 c0 -26 5 -35 23 -40 l22 -6 -22 -19
c-19 -16 -23 -29 -23 -75 0 -54 -1 -56 -27 -56 -16 0 -41 7 -58 16 -16 8 -39
13 -50 10 -31 -8 -73 42 -84 100 -8 39 -7 51 5 60 8 6 14 16 14 22 0 17 19 20
113 21 l87 1 0 -34z m-701 -759 c0 -21 -1 -21 -9 -2 -12 28 -12 37 0 30 6 -3
10 -16 9 -28z"/>
<path d="M12440 9850 c0 -5 4 -10 9 -10 6 0 13 5 16 10 3 6 -1 10 -9 10 -9 0
-16 -4 -16 -10z"/>
<path d="M13904 9755 c-7 -29 -1 -41 15 -30 14 8 14 55 1 55 -5 0 -12 -11 -16
-25z"/>
<path d="M6863 8699 c-60 -28 -58 -36 31 -98 63 -44 104 -54 91 -23 -4 9 -18
44 -30 77 -13 33 -29 61 -36 62 -8 1 -33 -7 -56 -18z"/>
<path d="M11245 6194 c-18 -13 -17 -14 7 -14 29 0 45 15 25 23 -7 3 -21 -1
-32 -9z"/>
<path d="M12120 6172 c-19 -15 -20 -21 -9 -44 l12 -27 18 24 c34 43 18 79 -21
47z"/>
<path d="M9690 5890 l-25 -8 25 -1 c14 0 32 4 40 9 13 9 13 10 0 9 -8 -1 -26
-5 -40 -9z"/>
<path d="M9610 5860 c-12 -8 -11 -10 7 -10 12 0 25 5 28 10 8 13 -15 13 -35 0z"/>
<path d="M9350 5787 c0 -8 -11 -24 -25 -37 -14 -13 -25 -33 -25 -45 0 -23 81
-105 135 -138 17 -9 52 -33 79 -52 28 -19 52 -33 54 -31 7 7 -39 87 -53 92 -8
3 -40 37 -71 75 -45 55 -55 74 -50 93 3 13 3 32 0 40 -7 19 -44 21 -44 3z"/>
<path d="M9640 5401 c0 -6 5 -13 10 -16 6 -3 10 1 10 9 0 9 -4 16 -10 16 -5 0
-10 -4 -10 -9z"/>
<path d="M9720 5322 c0 -5 7 -13 16 -16 10 -4 14 -1 12 6 -5 15 -28 23 -28 10z"/>
<path d="M11562 5273 c-18 -18 -22 -28 -14 -31 14 -4 62 35 62 50 0 16 -21 8
-48 -19z"/>
<path d="M11500 5205 c-20 -24 -6 -28 15 -5 10 11 13 20 8 20 -6 0 -16 -7 -23
-15z"/>
<path d="M10414 4892 c4 -7 31 -19 61 -27 43 -13 59 -14 76 -4 31 16 10 26
-76 35 -50 5 -66 4 -61 -4z"/>
<path d="M18173 6530 c0 -25 2 -35 4 -22 2 12 2 32 0 45 -2 12 -4 2 -4 -23z"/>
<path d="M18266 6101 c-4 -7 -5 -15 -2 -18 9 -9 19 4 14 18 -4 11 -6 11 -12 0z"/>
<path d="M16948 9280 c2 -17 8 -30 13 -30 14 0 11 36 -4 49 -11 8 -13 5 -9
-19z"/>
<path d="M17098 9213 c-24 -6 -23 -20 3 -28 22 -7 43 11 33 27 -5 8 -8 8 -36
1z"/>
<path d="M17172 9049 c2 -7 10 -15 17 -17 8 -3 12 1 9 9 -2 7 -10 15 -17 17
-8 3 -12 -1 -9 -9z"/>
<path d="M17540 8221 c0 -50 3 -59 15 -54 20 7 17 104 -2 111 -10 3 -13 -13
-13 -57z"/>
<path d="M17707 7863 c-9 -9 -8 -103 2 -128 6 -14 10 2 13 50 5 67 0 93 -15
78z"/>
<path d="M17145 6880 c-19 -8 -19 -9 3 -9 12 -1 22 4 22 9 0 6 -1 10 -2 9 -2
0 -12 -4 -23 -9z"/>
<path d="M17280 6640 c0 -19 3 -21 12 -12 9 9 9 15 0 24 -9 9 -12 7 -12 -12z"/>
<path d="M16826 5218 c-10 -39 -7 -103 4 -92 17 17 29 114 15 114 -7 0 -15
-10 -19 -22z"/>
<path d="M5090 5274 c-25 -7 -37 -36 -32 -75 3 -31 10 -39 43 -54 58 -26 59
-10 5 40 -44 40 -47 46 -33 60 9 8 20 15 26 15 6 0 11 5 11 10 0 6 -1 9 -2 9
-2 -1 -10 -3 -18 -5z"/>
<path d="M5160 5230 c0 -5 5 -10 10 -10 6 0 10 5 10 10 0 6 -4 10 -10 10 -5 0
-10 -4 -10 -10z"/>
<path d="M17840 2950 c0 -5 5 -10 10 -10 6 0 10 5 10 10 0 6 -4 10 -10 10 -5
0 -10 -4 -10 -10z"/>
<path d="M17810 2821 c0 -9 24 -21 41 -21 5 0 9 7 9 15 0 9 -9 15 -25 15 -14
0 -25 -4 -25 -9z"/>
<path d="M11366 1014 c-4 -11 -1 -14 11 -12 9 2 18 9 21 16 6 18 -25 15 -32
-4z"/>
<path d="M16288 16054 c-11 -10 3 -34 19 -34 8 0 13 7 11 17 -3 18 -20 27 -30
17z"/>
<path d="M6240 15915 c0 -8 5 -15 10 -15 6 0 10 7 10 15 0 8 -4 15 -10 15 -5
0 -10 -7 -10 -15z"/>
<path d="M6150 15880 c20 -13 33 -13 25 0 -3 6 -14 10 -23 10 -15 0 -15 -2 -2
-10z"/>
<path d="M6242 15633 c-8 -17 -12 -40 -10 -50 3 -16 5 -16 17 5 7 13 11 35 9
50 l-3 27 -13 -32z"/>
<path d="M5745 15580 c3 -5 8 -10 11 -10 2 0 4 5 4 10 0 6 -5 10 -11 10 -5 0
-7 -4 -4 -10z"/>
<path d="M16590 15556 c0 -26 80 -140 106 -150 10 -4 14 3 14 25 0 23 -5 32
-21 36 -16 5 -19 11 -14 34 6 26 4 29 -21 29 -15 0 -36 7 -46 17 -10 9 -18 13
-18 9z"/>
<path d="M5923 15508 c-11 -13 -24 -34 -28 -48 -4 -14 -12 -34 -19 -45 -7 -11
-18 -39 -26 -62 -7 -24 -19 -43 -27 -43 -7 0 -18 -11 -23 -24 -7 -18 -20 -27
-57 -34 -48 -11 -83 0 -56 16 16 10 15 139 0 149 -20 12 -47 10 -58 -4 -6 -7
-19 -13 -29 -13 -32 0 -95 -98 -85 -130 5 -15 -1 -20 -29 -25 -59 -11 -69 -5
-72 43 -2 45 -13 67 -22 43 -2 -7 -12 -20 -22 -28 -22 -19 -15 -47 16 -62 27
-12 31 -35 10 -56 -12 -12 -16 -12 -26 0 -24 29 -56 18 -78 -25 -10 -22 -22
-37 -24 -34 -3 2 -8 -4 -11 -16 -6 -22 25 -50 56 -50 10 0 16 -4 12 -10 -3 -5
-27 -8 -53 -7 -27 2 -56 -3 -69 -11 -24 -15 -31 -46 -13 -57 7 -4 8 -11 1 -18
-5 -7 -9 -16 -9 -20 0 -16 -42 -57 -58 -57 -11 0 -14 -6 -9 -19 5 -16 2 -18
-15 -14 -25 7 -27 -12 -2 -27 16 -10 16 -10 0 -20 -10 -6 -18 -19 -18 -28 -1
-23 -29 26 -30 51 0 18 -15 23 -24 8 -13 -20 -16 -103 -5 -117 9 -11 6 -22
-14 -52 -14 -20 -28 -59 -32 -87 -4 -27 -18 -71 -31 -97 -13 -26 -24 -63 -24
-83 0 -22 -8 -43 -20 -55 -13 -13 -20 -33 -20 -59 0 -29 -7 -48 -25 -67 -14
-15 -25 -34 -25 -43 0 -10 -5 -22 -11 -28 -6 -6 -12 -26 -14 -44 -2 -19 -6
-44 -9 -57 -5 -21 -6 -54 -6 -141 0 -14 -6 -32 -14 -40 -15 -17 -63 -175 -78
-256 -10 -54 -26 -93 -58 -140 -11 -16 -20 -40 -20 -52 0 -12 -11 -42 -24 -65
-24 -44 -27 -85 -11 -204 8 -58 51 -107 96 -108 19 -1 45 -9 59 -19 13 -9 30
-17 36 -17 6 0 17 -7 24 -15 29 -35 122 -7 141 43 5 13 15 22 22 19 6 -2 20 0
30 5 18 9 18 10 0 24 -17 14 -17 15 1 27 47 31 64 49 71 74 3 16 20 48 36 72
16 25 29 53 29 63 0 22 27 90 39 98 10 6 51 94 51 109 0 6 9 28 20 48 11 21
20 47 20 58 0 12 4 25 9 31 5 5 16 36 26 68 9 32 24 70 33 84 20 30 38 77 58
147 8 28 22 56 31 63 18 13 20 19 32 92 4 25 24 75 45 112 21 37 39 84 42 104
2 20 13 48 24 62 11 13 20 31 20 39 0 9 6 13 14 10 17 -7 28 25 26 75 -1 24 7
50 24 77 14 22 26 44 26 49 0 5 9 17 20 27 13 12 20 31 20 55 0 37 60 181 86
208 8 7 14 29 14 48 0 22 9 48 24 67 13 18 27 50 31 72 3 21 14 44 23 51 16
12 20 62 10 118 -3 20 42 54 73 55 19 1 49 67 49 106 0 13 5 27 10 30 20 12
10 35 -14 35 -14 0 -28 5 -31 10 -11 17 -41 11 -62 -12z m-227 -335 c-10 -10
-19 5 -10 18 6 11 8 11 12 0 2 -7 1 -15 -2 -18z m114 -7 c0 -11 -19 -15 -25
-6 -3 5 1 10 9 10 9 0 16 -2 16 -4z"/>
<path d="M16492 15509 c1 -13 8 -23 13 -21 15 3 12 35 -3 40 -9 3 -13 -3 -10
-19z"/>
<path d="M5680 15489 c-7 -11 -9 -23 -6 -26 8 -9 36 17 36 33 0 21 -18 17 -30
-7z"/>
<path d="M16460 15415 c0 -11 7 -15 23 -13 12 2 22 8 22 13 0 6 -10 11 -22 13
-16 2 -23 -2 -23 -13z"/>
<path d="M16715 15358 c-7 -34 8 -88 23 -88 5 0 14 -10 20 -22 10 -22 11 -22
11 -2 1 11 -6 29 -14 40 -8 10 -15 36 -15 56 0 48 -17 58 -25 16z"/>
<path d="M16810 15091 c0 -11 4 -21 9 -21 18 0 21 18 6 30 -13 10 -15 9 -15
-9z"/>
<path d="M5432 12035 c0 -68 2 -84 9 -64 6 16 6 50 1 90 l-10 64 0 -90z"/>
<path d="M2210 11360 c0 -5 7 -10 15 -10 8 0 15 5 15 10 0 6 -7 10 -15 10 -8
0 -15 -4 -15 -10z"/>
<path d="M2280 11360 c0 -5 5 -10 11 -10 5 0 7 5 4 10 -3 6 -8 10 -11 10 -2 0
-4 -4 -4 -10z"/>
<path d="M3750 8453 c0 -4 5 -15 10 -23 8 -13 10 -13 10 2 0 9 -4 20 -10 23
-5 3 -10 3 -10 -2z"/>
<path d="M4750 7784 c0 -9 7 -14 17 -12 25 5 28 28 4 28 -12 0 -21 -6 -21 -16z"/>
<path d="M5790 6991 c0 -12 29 -81 35 -81 2 0 -3 20 -12 45 -14 42 -23 56 -23
36z"/>
<path d="M5880 6773 c0 -4 5 -15 10 -23 8 -13 10 -13 10 2 0 9 -4 20 -10 23
-5 3 -10 3 -10 -2z"/>
<path d="M935 5409 c-10 -15 1 -23 20 -15 9 3 13 10 10 16 -8 13 -22 13 -30
-1z"/>
<path d="M6240 3739 c0 -6 -7 -17 -16 -23 -18 -14 -33 -74 -34 -133 0 -33 7
-50 28 -74 l28 -32 28 28 28 28 -22 44 c-17 34 -21 57 -18 105 2 42 -1 62 -9
65 -7 3 -13 -1 -13 -8z"/>
<path d="M20260 2791 c0 -8 6 -19 14 -25 8 -6 33 -48 56 -93 40 -77 60 -95 60
-55 0 30 -129 202 -130 173z"/>
<path d="M20420 2589 c7 -11 14 -18 17 -15 8 8 -5 36 -17 36 -7 0 -7 -6 0 -21z"/>
<path d="M20420 2494 c0 -3 12 -26 28 -52 25 -44 27 -46 30 -21 2 18 -5 35
-23 53 -26 26 -35 31 -35 20z"/>
<path d="M19425 1200 c3 -5 12 -7 20 -3 21 7 19 13 -6 13 -11 0 -18 -4 -14
-10z"/>
<path d="M3590 555 c0 -8 5 -15 10 -15 6 0 10 7 10 15 0 8 -4 15 -10 15 -5 0
-10 -7 -10 -15z"/>
<path d="M495 530 c-3 -5 1 -10 10 -10 9 0 13 5 10 10 -3 6 -8 10 -10 10 -2 0
-7 -4 -10 -10z"/>
<path d="M710 119 c0 -5 5 -7 10 -4 6 3 10 8 10 11 0 2 -4 4 -10 4 -5 0 -10
-5 -10 -11z"/>
<path d="M677 95 c-5 -10 0 -15 14 -15 12 0 19 5 17 12 -6 18 -25 20 -31 3z"/>
</g>
</svg>
